<svg version="1.1" id="Layer_1" xmlns="http://www.w3.org/2000/svg" xmlns:xlink="http://www.w3.org/1999/xlink" x="0px" y="0px"
	 width="100%" viewBox="0 0 873 873" enable-background="new 0 0 873 873" xml:space="preserve">

<path fill="#FCFBFC" opacity="1.000000" stroke="none" 
	d="
M335.677490,528.880737 
	C334.220642,530.115723 332.763763,531.350708 330.861328,532.967651 
	C324.270844,538.897217 318.125977,544.444824 311.513947,549.973022 
	C280.125153,549.959229 249.203506,549.964783 218.164185,549.583374 
	C217.946533,548.129578 217.846558,547.062805 217.746567,545.996033 
	C217.822845,537.968994 217.899109,529.942017 217.976624,521.068481 
	C217.899506,519.146973 217.821167,518.071899 217.742828,516.996887 
	C217.827881,515.841492 217.987305,514.686157 217.987350,513.530762 
	C217.990158,431.659302 217.980270,349.787811 217.975861,267.054199 
	C217.906754,264.793518 217.833206,263.394928 217.759674,261.996368 
	C217.837357,260.276794 217.915039,258.557190 217.994843,256.052948 
	C217.917236,254.511246 217.837524,253.754242 217.757812,252.997223 
	C217.828751,252.135895 217.899689,251.274567 217.972473,249.797241 
	C217.896088,248.092194 217.817871,247.003174 217.739655,245.914139 
	C217.739655,245.914139 217.939941,246.118561 218.348358,246.068161 
	C219.183975,245.509460 219.611145,245.001175 220.358521,244.397705 
	C221.114288,244.368576 221.549881,244.434601 222.131927,244.852051 
	C223.865402,245.465759 225.452164,245.955460 227.039474,245.957260 
	C271.098083,246.007248 315.156738,246.016586 359.215363,245.980469 
	C360.795532,245.979172 362.375214,245.448563 363.955139,245.164642 
	C365.355957,245.181122 366.756744,245.197601 368.655823,245.669495 
	C370.755402,246.133698 372.356750,246.142456 373.958099,246.151215 
	C375.036469,246.168411 376.114838,246.185608 377.657898,246.647797 
	C379.397614,247.127869 380.672668,247.162918 381.947693,247.197983 
	C382.407318,247.193176 382.866974,247.188354 383.702026,247.617889 
	C385.032898,248.105377 385.988373,248.158524 386.943817,248.211670 
	C387.406403,248.211151 387.869019,248.210617 388.686279,248.627014 
	C389.683899,249.065308 390.326874,249.086655 390.969818,249.108002 
	C391.426147,249.114563 391.882477,249.121124 392.752258,249.611359 
	C397.089508,251.144150 401.013275,252.193237 404.937042,253.242325 
	C405.766449,253.500565 406.595886,253.758804 407.746918,254.507935 
	C409.360748,255.401230 410.652924,255.803619 411.945129,256.205994 
	C431.969971,264.840912 445.395599,279.826782 451.744019,300.377625 
	C458.659088,322.762665 457.731476,345.138641 447.331238,366.568878 
	C441.499786,378.584839 432.412781,387.714569 421.166504,394.775421 
	C419.777527,395.647430 418.390076,396.521881 416.325073,397.821045 
	C430.854156,402.675995 443.449097,409.511932 453.534302,421.298492 
	C455.532867,423.910797 457.154297,426.049469 458.751770,428.515503 
	C457.552673,430.139587 456.426392,431.485077 455.192932,432.723816 
	C451.781036,436.150543 448.324341,439.532684 444.924194,442.947174 
	C444.963043,442.961884 444.978821,442.880280 444.683105,442.804321 
	C444.235992,442.864380 444.084564,443.000427 443.634460,443.191162 
	C442.228699,444.366211 441.121704,445.486572 439.749695,446.778503 
	C439.299042,447.306976 439.113403,447.663879 438.972839,448.019012 
	C439.017914,448.017242 439.021179,447.927124 438.690491,447.983643 
	C438.056458,448.365021 437.753082,448.689911 437.308258,448.978882 
	C436.935028,449.043610 436.878113,449.205597 436.665894,449.586609 
	C433.509613,451.842285 430.683472,453.940216 427.858795,455.713135 
	C427.549622,454.588409 427.238983,453.788757 426.957275,452.618591 
	C423.791809,441.202423 416.596710,433.457672 406.789215,427.922882 
	C393.958069,420.681641 379.802887,418.199890 365.427490,417.978180 
	C331.112091,417.448853 296.786407,417.579865 262.464813,417.466827 
	C261.168518,417.462555 259.871429,417.693146 258.360413,417.834351 
	C258.360413,450.632172 258.360413,483.186249 258.360413,516.414307 
	C288.349243,516.414307 318.029297,516.414307 348.714630,516.414307 
	C343.788361,521.124939 339.732910,525.002808 335.677490,528.880737 
M323.500000,280.075623 
	C301.776672,280.075623 280.053314,280.075623 258.487732,280.075623 
	C258.487732,315.438477 258.487732,349.964966 258.487732,384.599670 
	C259.894623,384.686951 260.878174,384.801239 261.861725,384.801239 
	C291.666046,384.801392 321.475494,385.099060 351.271667,384.602173 
	C360.828644,384.442810 370.468842,382.733337 379.856415,380.728424 
	C389.992096,378.563690 398.818085,373.394379 405.336273,365.090515 
	C429.242859,334.634613 413.922211,291.801453 376.214752,283.183075 
	C359.119415,279.275757 341.795410,280.139923 323.500000,280.075623 
z"/>

<path fill="#F2F2F2" opacity="1.000000" stroke="none" 
	d="
M511.986389,656.728271 
	C488.881592,656.728271 465.776825,656.728271 442.135132,656.728271 
	C442.135132,611.773132 442.135132,567.215088 442.135132,522.111206 
	C431.476654,522.111206 421.352325,522.159973 411.230927,522.010925 
	C410.486938,522.000000 407.174866,523.707581 409.300140,519.638550 
	C412.307434,516.765198 414.792206,514.347107 417.277039,511.929016 
	C424.785187,505.142944 432.186859,498.232147 439.880219,491.662994 
	C441.689362,490.118225 444.477631,488.941528 446.824677,488.925293 
	C471.582306,488.754059 496.341797,488.852600 521.544861,489.367249 
	C520.922058,495.057190 516.473206,495.644714 512.004883,496.638428 
	C512.004883,501.555298 512.004883,506.279602 511.994019,511.407166 
	C511.983490,515.149048 511.983826,518.487610 511.532532,521.954651 
	C501.494507,522.083130 491.908020,522.083130 482.065552,522.083130 
	C482.065552,556.125427 482.065552,589.441223 482.065552,623.493958 
	C492.191986,623.493958 502.096130,623.493958 511.947083,623.922974 
	C512.092651,631.545349 512.291443,638.738770 512.399048,646.286316 
	C512.262695,648.098999 512.217529,649.557556 512.069214,651.418213 
	C512.009460,653.196167 512.052734,654.572021 512.003113,656.133789 
	C511.910156,656.319641 511.986389,656.728271 511.986389,656.728271 
z"/>
<path fill="#E8E8E8" opacity="1.000000" stroke="none" 
	d="
M220.450806,76.305313 
	C166.335831,110.262871 122.290413,153.922806 88.452652,207.644226 
	C58.798111,254.724289 39.378571,305.792358 30.899366,360.896698 
	C30.874022,361.061401 30.870773,361.232941 30.821196,361.389954 
	C30.130642,363.577026 30.913330,367.202667 27.175516,366.779816 
	C23.451960,366.358582 23.962858,363.201477 24.442743,360.488708 
	C25.719189,353.273010 26.818472,346.019348 28.330811,338.853058 
	C45.610085,256.974396 84.486115,186.829590 144.002380,128.249237 
	C214.676559,58.686436 300.114868,19.822104 398.326569,9.413792 
	C467.517181,2.081085 534.578613,12.380381 598.996765,38.751595 
	C680.712830,72.204155 745.213989,126.544434 793.411560,200.359818 
	C825.094299,248.882416 844.989014,301.940033 853.858704,359.169312 
	C853.986145,359.991577 854.341187,360.947845 854.066040,361.630341 
	C853.348572,363.409912 852.339478,365.071899 851.446777,366.780823 
	C850.258362,365.371643 848.252686,364.092896 848.003845,362.533752 
	C844.110291,338.138123 838.506165,314.173584 830.358643,290.838348 
	C814.559814,245.588913 791.472595,204.443100 761.180176,167.263489 
	C725.332397,123.265518 682.476196,87.888435 632.217468,61.551701 
	C591.010193,39.958153 547.312012,25.927187 501.319214,18.940172 
	C460.158722,12.687263 418.995697,12.545301 377.862793,18.900282 
	C323.780792,27.255884 272.972382,44.904076 225.955139,73.116379 
	C224.241394,74.144691 222.494827,75.118324 220.450806,76.305313 
z"/>
<path fill="#0577E7" opacity="1.000000" stroke="none" 
	d="
M812.957947,632.979614 
	C803.242249,649.245117 794.289124,666.030396 783.637268,681.657837 
	C766.432068,706.899780 746.307129,729.769104 723.727600,750.470825 
	C684.100586,786.802368 639.262390,814.558350 589.122253,833.959167 
	C558.054077,845.980347 526.017944,854.061768 493.078491,858.432129 
	C450.846375,864.035278 408.696533,862.803162 366.726746,855.454102 
	C306.912354,844.980408 252.075592,822.122437 202.087173,787.946350 
	C141.446396,746.487427 94.859352,692.582703 62.644760,626.316528 
	C64.896103,625.592651 66.768181,625.228516 68.640259,624.864380 
	C74.419357,635.162781 79.918388,645.630615 86.025726,655.730530 
	C113.418442,701.030579 148.216614,739.729980 190.637711,771.414185 
	C236.581009,805.729126 287.241699,830.208984 343.181213,843.445984 
	C396.845215,856.144531 450.872101,858.498840 505.365845,849.551697 
	C577.478699,837.711792 642.065063,808.863953 698.865112,763.067871 
	C740.147888,729.783020 773.913452,689.875366 799.822083,643.475159 
	C802.257996,639.112671 804.638489,634.719299 807.644653,630.153687 
	C809.815674,630.971313 811.386841,631.975464 812.957947,632.979614 
z"/>
<path fill="#FAFAFA" opacity="1.000000" stroke="none" 
	d="
M638.131714,458.038422 
	C638.530396,455.936371 638.929138,453.834320 639.796692,451.281433 
	C640.218262,449.900513 640.171021,448.970428 640.123779,448.040344 
	C640.066956,445.964417 640.010132,443.888458 640.287476,441.176331 
	C640.302612,439.351227 639.983582,438.162354 639.664551,436.973450 
	C639.446716,436.228729 639.228821,435.484039 639.268677,434.201111 
	C639.158936,433.102692 638.791321,432.542542 638.423706,431.982391 
	C631.393066,412.025330 615.248779,404.352875 596.114136,402.111755 
	C582.613281,400.530487 568.880188,400.893646 555.247803,400.492279 
	C549.968811,400.336853 544.681458,400.466949 537.988037,400.466949 
	C549.055725,390.232849 559.264465,381.239716 568.907410,371.676086 
	C573.319031,367.300751 577.806702,365.767944 583.921387,366.162201 
	C603.121643,367.400238 622.136047,369.354126 639.735168,377.882019 
	C672.490479,393.754120 686.769043,425.400665 676.721069,460.660095 
	C673.443298,459.995361 670.778381,458.305023 668.043884,458.183807 
	C664.328125,458.019073 660.551514,459.005188 656.814697,459.585815 
	C650.454773,460.573944 644.188049,460.626648 638.131714,458.038422 
z"/>
<path fill="#E7F0F5" opacity="1.000000" stroke="none" 
	d="
M360.177917,529.396301 
	C361.020660,528.700195 361.863373,528.004028 363.071930,526.991333 
	C363.726440,526.517517 363.855011,526.275208 363.823486,525.947876 
	C363.823486,525.947876 363.953522,525.961243 364.185822,525.856628 
	C364.726166,525.577332 364.873932,525.313049 364.861450,524.959106 
	C364.861450,524.959106 364.965363,524.969788 365.204224,524.877319 
	C365.761658,524.610168 365.917206,524.341125 365.909698,523.977844 
	C366.214569,523.814392 366.519470,523.651001 367.175415,523.196350 
	C367.697174,522.615173 367.867920,522.325134 368.038666,522.035156 
	C368.038666,522.035156 368.000000,522.000000 368.286255,521.978271 
	C368.744995,521.655762 368.917542,521.354858 369.090057,521.054016 
	C369.090057,521.054016 369.002411,521.012085 369.363708,520.963135 
	C376.830261,514.057068 383.935455,507.200043 391.379456,500.237915 
	C394.844269,497.212006 397.970245,494.291168 401.432037,491.271118 
	C403.256805,489.508667 404.745728,487.845459 406.171844,486.149292 
	C406.109039,486.116302 406.182434,486.237762 406.522339,486.226196 
	C408.227112,484.785492 409.592041,483.356354 410.976746,481.961548 
	C410.996521,481.995850 410.933167,481.948364 411.220398,481.932800 
	C411.655212,481.590576 411.802795,481.263947 411.963867,480.971985 
	C411.977386,481.006622 411.915253,480.965576 412.200745,480.951508 
	C412.655731,480.619720 412.825195,480.302002 412.997314,479.991516 
	C413.000000,479.998779 412.987213,479.991882 413.265167,479.965515 
	C413.695068,479.624298 413.847046,479.309448 413.999176,478.997314 
	C413.999359,479.000000 413.991455,479.001251 414.327576,478.945831 
	C428.642975,465.995850 442.630890,453.110687 456.597534,440.202484 
	C462.762848,434.504333 468.884949,428.759430 475.014954,423.020599 
	C475.003265,423.005463 475.031250,423.026794 475.372009,423.015076 
	C478.153687,420.682190 480.594604,418.361023 483.017761,416.019958 
	C483.000000,416.000000 483.035370,416.040833 483.374817,416.024963 
	C485.329254,414.364319 486.944244,412.719513 488.592102,411.077942 
	C488.625000,411.081177 488.663757,411.027618 488.977081,410.986633 
	C489.526123,410.623077 489.761841,410.300537 489.997314,409.986633 
	C489.997131,409.995300 489.980469,409.990997 490.258820,409.970673 
	C490.708588,409.644531 490.880005,409.338715 491.027283,409.016327 
	C491.003174,408.999756 491.021423,409.055359 491.335236,409.020142 
	C491.887756,408.648041 492.126465,408.311218 492.621643,407.791748 
	C498.246429,402.747986 503.614777,397.886871 508.999634,393.023071 
	C509.016174,393.020416 509.026733,392.988647 509.304199,392.981415 
	C509.729431,392.665955 509.877197,392.357727 510.018372,392.030518 
	C510.011810,392.011566 510.048218,392.028473 510.340240,392.034851 
	C510.777954,391.717010 510.923615,391.392761 511.054932,391.038544 
	C511.040588,391.008545 511.082184,391.070221 511.420471,391.074585 
	C513.483276,389.383911 515.207764,387.688873 516.966187,385.996216 
	C517.000000,385.998627 516.996582,385.930908 517.345459,385.924438 
	C520.796021,383.325134 523.897705,380.732269 527.340881,378.047150 
	C532.379272,374.115051 537.139282,370.349030 541.749695,366.407959 
	C544.586609,363.982910 547.195007,361.290466 549.981445,358.475830 
	C549.952454,358.100586 549.847961,357.967590 549.770447,357.798981 
	C549.797424,357.763397 549.877808,357.724518 550.078369,357.917450 
	C550.463013,358.087830 550.647095,358.065308 551.163330,358.051453 
	C551.906494,357.612762 552.317627,357.165344 552.919983,356.581665 
	C553.352661,356.241821 553.557556,356.006531 554.045288,355.679047 
	C554.588745,355.261200 554.812927,354.903778 555.318726,354.469116 
	C556.623535,353.494415 557.646790,352.596924 558.960693,351.756470 
	C560.196899,351.929413 561.142395,352.045380 562.087830,352.161346 
	C550.469238,363.542419 538.850647,374.923492 526.773315,386.703003 
	C524.304260,389.098602 522.293945,391.095764 520.283630,393.092896 
	C517.608215,395.519470 514.932800,397.946045 511.798218,400.769165 
	C507.990326,404.473694 504.641724,407.781616 501.293091,411.089539 
	C499.278351,412.853394 497.263611,414.617279 494.803284,416.784607 
	C486.922424,424.261932 479.487152,431.335846 471.851501,438.418793 
	C471.374969,438.576385 471.270966,438.803589 471.230835,439.115265 
	C471.122650,439.121033 471.108612,439.337250 470.898254,439.357788 
	C470.402924,439.534882 470.286163,439.773712 470.036926,440.259705 
	C465.480865,444.539246 461.225494,448.653870 456.633972,452.859558 
	C450.964752,457.909607 445.649139,462.887543 440.294556,467.823151 
	C431.188934,476.216278 422.058838,484.582855 412.967896,492.979187 
	C412.996735,492.997803 412.965179,492.936798 412.640076,492.988647 
	C411.110260,494.264160 409.905579,495.487885 408.851837,496.843872 
	C409.002777,496.976196 408.710205,496.700531 408.384430,496.785645 
	C403.680725,500.898163 399.302795,504.925568 394.957703,508.972961 
	C394.990540,508.992950 394.961426,508.921844 394.653442,508.955322 
	C393.644470,509.707031 392.943451,510.425232 392.169739,511.133789 
	C392.097046,511.124146 392.104858,511.270630 391.872070,511.293457 
	C391.326324,511.485291 391.187775,511.746765 391.155914,512.090820 
	C391.088196,512.080994 391.094360,512.217712 390.852478,512.243713 
	C390.287079,512.447876 390.144440,512.720703 390.128662,513.078857 
	C390.074585,513.069519 390.083374,513.178955 389.832550,513.204529 
	C389.424194,513.508423 389.266693,513.786682 388.869781,514.152222 
	C388.435822,514.508972 388.241211,514.778564 387.778992,515.084412 
	C387.345886,515.418640 387.180389,515.716553 387.007446,516.007202 
	C387.000000,516.000000 387.014709,516.014709 386.742065,516.045654 
	C386.302246,516.379028 386.135132,516.681519 385.984375,516.993103 
	C386.000732,517.002197 385.986450,516.967590 385.705261,516.993774 
	C385.259216,517.332703 385.094330,517.645447 384.964417,517.975952 
	C384.999390,517.993713 384.947357,517.934937 384.615234,517.988037 
	C382.169678,520.014587 380.056274,521.987976 377.969696,523.979980 
	C377.996521,523.998596 377.968811,523.939514 377.658386,523.965271 
	C376.627838,524.702209 375.907684,525.413391 375.135132,526.112671 
	C375.082703,526.100769 375.090851,526.207947 374.845825,526.233276 
	C374.268829,526.432495 374.119751,526.705994 374.110229,527.070435 
	C374.066925,527.061646 374.074219,527.149719 373.817444,527.176270 
	C373.398254,527.487549 373.235779,527.772217 372.839661,528.137207 
	C372.305634,528.398071 372.117340,528.659424 371.769714,529.046143 
	C371.321564,529.390930 371.144867,529.691162 370.985596,529.997681 
	C371.002991,530.004028 370.996826,529.967529 370.701233,530.003967 
	C370.184906,530.355225 369.964203,530.670044 369.566162,531.022461 
	C369.388763,531.059998 369.220428,531.381226 368.943665,531.438843 
	C368.193878,532.038757 367.720886,532.580994 367.166443,533.112305 
	C367.085052,533.101440 367.081879,533.265747 366.846832,533.279663 
	C366.291565,533.457581 366.149353,533.718628 366.125092,534.067261 
	C366.065063,534.057861 366.069214,534.179321 365.821716,534.203369 
	C365.236450,534.402649 365.089081,534.679321 365.090485,535.050476 
	C365.048859,535.043579 365.053040,535.127869 364.795288,535.150085 
	C364.382568,535.458984 364.227539,535.745605 364.040802,536.018677 
	C364.009064,536.005127 364.030304,536.070862 363.764771,536.096313 
	C363.341217,536.417603 363.183197,536.713379 363.012024,537.003357 
	C362.998840,536.997559 363.007568,537.024963 362.734497,537.046692 
	C362.293488,537.369934 362.125580,537.671448 361.978821,537.986450 
	C362.000000,538.000000 361.972137,537.958130 361.685791,537.963623 
	C360.922028,538.279175 360.444580,538.589294 359.618927,538.942139 
	C358.525299,539.839600 357.779938,540.694275 357.029358,541.594421 
	C357.024200,541.639832 356.935089,541.660217 356.574951,541.734375 
	C354.099579,543.837036 351.984314,545.865540 349.914612,547.938843 
	C349.960175,547.983643 349.907654,547.867126 349.547668,547.850098 
	C343.465485,551.735901 337.803253,555.731445 331.986328,559.487427 
	C330.129425,560.686401 327.862335,561.250061 325.782959,562.104492 
	C327.211243,560.512390 328.639526,558.920288 330.541077,556.887939 
	C336.024597,551.789307 341.034790,547.130981 346.195435,542.503906 
	C346.579865,542.429749 346.648041,542.258301 346.857758,541.885620 
	C347.760956,541.096069 348.356659,540.441650 349.182404,539.754883 
	C349.717346,539.557251 349.866150,539.301147 349.903687,538.961426 
	C349.948486,538.968628 349.947021,538.877869 350.266724,538.785278 
	C353.783600,535.593811 356.980743,532.495056 360.177917,529.396301 
z"/>
<path fill="#D9EFFB" opacity="1.000000" stroke="none" 
	d="
M511.984131,521.826172 
	C511.983826,518.487610 511.983490,515.149048 512.394531,511.406616 
	C516.247070,511.172455 519.016541,511.946503 519.147095,516.313599 
	C519.174377,517.225647 520.976990,518.903748 521.737122,518.785522 
	C522.920166,518.601562 524.012329,517.276306 524.959595,516.263245 
	C526.357483,514.768311 527.407837,512.899231 528.955750,511.608643 
	C530.306641,510.482361 532.087646,509.795990 533.770447,509.156952 
	C541.266174,506.310455 548.091614,500.262604 556.656921,502.227966 
	C562.466064,503.560883 566.763977,501.483887 570.082153,498.006317 
	C573.460205,494.466034 576.362061,492.143829 581.351746,493.919434 
	C582.109009,494.188843 583.203918,493.316345 584.157471,493.268829 
	C585.960449,493.179016 588.184448,492.644989 589.505432,493.466461 
	C593.248779,495.794342 596.327148,495.689178 599.170166,492.312500 
	C600.888367,490.271820 602.595093,490.460907 605.232605,490.894806 
	C612.971863,492.167877 620.479492,489.399506 628.079773,488.249969 
	C628.624451,488.167572 629.006409,487.298370 629.566223,486.968475 
	C630.813110,486.233734 632.070679,485.191772 633.419922,485.017181 
	C637.504944,484.488708 641.706238,484.674255 645.726196,483.887024 
	C648.948486,483.256012 652.393982,482.187286 654.988892,480.286713 
	C659.272949,477.148926 663.459778,474.492096 669.159912,475.254211 
	C669.655090,475.708527 669.989502,475.913544 670.323975,476.118530 
	C664.885559,482.410461 659.447144,488.702362 653.374023,494.872864 
	C651.307434,490.635254 648.329102,490.075562 644.835754,491.684021 
	C642.018494,492.981171 639.471130,494.852081 636.710449,496.288513 
	C634.688599,497.340546 632.281128,499.188019 630.451294,498.794434 
	C624.085999,497.425201 618.352539,499.581787 612.514893,501.061737 
	C605.855530,502.749939 599.325256,504.942139 592.718689,506.845276 
	C586.585876,508.611908 580.513672,511.126495 574.255432,511.775787 
	C567.361145,512.491028 561.577881,514.679871 556.409973,518.824402 
	C557.391357,519.974243 558.188843,520.908630 558.532837,521.965210 
	C542.714294,522.000427 527.349243,521.913269 511.984131,521.826172 
M537.765381,519.966064 
	C538.189636,519.842529 538.613953,519.718933 540.075745,519.293213 
	C538.479797,519.149902 538.023376,519.035339 537.599915,519.109436 
	C537.444824,519.136658 537.367981,519.611023 537.765381,519.966064 
M532.235352,519.035950 
	C531.812988,519.158569 531.390564,519.281189 530.968140,519.403809 
	C531.070740,519.620361 531.173340,519.836914 531.275879,520.053467 
	C531.765015,519.742188 532.254150,519.430908 532.235352,519.035950 
M545.520386,519.912903 
	C545.755859,519.770325 545.991333,519.627686 546.226807,519.485046 
	C545.983765,519.353027 545.669922,519.060242 545.515015,519.128418 
	C545.307007,519.219971 545.221741,519.590393 545.520386,519.912903 
z"/>

<path fill="#0889F8" opacity="1.000000" stroke="none" 
	d="
M693.888428,587.104919 
	C692.919006,591.349060 691.949585,595.593201 690.169067,599.942627 
	C682.724731,599.032837 677.712280,600.913513 674.614075,607.383301 
	C673.807251,609.068115 671.474365,610.458923 669.549988,611.082458 
	C665.309326,612.456482 660.971313,613.308594 659.161072,618.224060 
	C658.883911,618.976746 657.624817,619.385193 656.795105,619.914124 
	C652.953186,622.363525 649.137329,624.856934 645.239380,627.214233 
	C643.437012,628.304138 641.558655,629.568054 639.557312,629.971069 
	C634.315308,631.026611 629.733215,632.620972 625.497131,636.439758 
	C620.778137,640.693970 615.062317,644.091064 609.298401,646.856873 
	C604.902161,648.966309 601.731689,650.500000 604.993896,655.786011 
	C593.632507,656.149048 582.271118,656.512085 570.463623,656.405884 
	C571.544373,650.764526 576.357483,651.872070 579.909241,651.099426 
	C590.756592,648.739563 599.679016,643.405640 607.436584,635.535583 
	C609.910095,633.026184 613.557556,631.515747 616.889954,630.054932 
	C620.351685,628.537537 623.003418,626.873718 622.336731,622.519409 
	C622.112427,621.053833 622.110352,619.554199 622.188232,617.982971 
	C622.369751,617.895813 622.771973,617.917114 623.101440,617.916626 
	C623.944397,617.570618 624.457886,617.225159 625.186890,616.617188 
	C631.213013,612.553528 637.023621,608.752319 643.220215,604.969849 
	C650.989014,607.458374 650.863098,607.384033 655.363953,599.758850 
	C656.177124,598.381165 658.417969,597.674011 660.140137,597.037659 
	C665.225891,595.158386 671.143738,594.512146 675.327515,591.455627 
	C681.232483,587.141663 686.500610,583.598572 693.888428,587.104919 
z"/>
<path fill="#E4F3FC" opacity="1.000000" stroke="none" 
	d="
M668.999146,475.004883 
	C663.459778,474.492096 659.272949,477.148926 654.988892,480.286713 
	C652.393982,482.187286 648.948486,483.256012 645.726196,483.887024 
	C641.706238,484.674255 637.504944,484.488708 633.419922,485.017181 
	C632.070679,485.191772 630.813110,486.233734 629.566223,486.968475 
	C629.006409,487.298370 628.624451,488.167572 628.079773,488.249969 
	C620.479492,489.399506 612.971863,492.167877 605.232605,490.894806 
	C602.595093,490.460907 600.888367,490.271820 599.170166,492.312500 
	C596.327148,495.689178 593.248779,495.794342 589.505432,493.466461 
	C588.184448,492.644989 585.960449,493.179016 584.157471,493.268829 
	C583.203918,493.316345 582.109009,494.188843 581.351746,493.919434 
	C576.362061,492.143829 573.460205,494.466034 570.082153,498.006317 
	C566.763977,501.483887 562.466064,503.560883 556.656921,502.227966 
	C548.091614,500.262604 541.266174,506.310455 533.770447,509.156952 
	C532.087646,509.795990 530.306641,510.482361 528.955750,511.608643 
	C527.407837,512.899231 526.357483,514.768311 524.959595,516.263245 
	C524.012329,517.276306 522.920166,518.601562 521.737122,518.785522 
	C520.976990,518.903748 519.174377,517.225647 519.147095,516.313599 
	C519.016541,511.946503 516.247070,511.172455 512.405396,511.003357 
	C512.004883,506.279602 512.004883,501.555298 512.004883,496.638428 
	C516.473206,495.644714 520.922058,495.057190 521.998962,489.494202 
	C541.686584,488.986633 561.364136,488.842651 581.681885,489.053650 
	C583.566772,489.155457 584.811462,488.902374 586.056152,488.649292 
	C588.091858,488.427216 590.127625,488.205170 592.763489,488.281006 
	C594.260864,488.285400 595.158081,487.991852 596.055298,487.698364 
	C598.446594,487.171539 600.837891,486.644684 603.804199,486.341125 
	C604.926636,486.085632 605.474060,485.606842 606.021545,485.128052 
	C614.205688,482.612244 622.171631,479.692413 628.819092,473.186432 
	C631.010559,474.163361 632.570435,475.106689 634.124329,476.059906 
	C637.483887,478.120758 641.279846,479.348755 644.155884,476.070648 
	C648.074585,471.604095 652.808105,470.005646 658.438538,469.231720 
	C665.014954,468.327759 666.471558,468.784180 668.999146,475.004883 
z"/>
<path fill="#037EF7" opacity="1.000000" stroke="none" 
	d="
M605.427734,655.861816 
	C601.731689,650.500000 604.902161,648.966309 609.298401,646.856873 
	C615.062317,644.091064 620.778137,640.693970 625.497131,636.439758 
	C629.733215,632.620972 634.315308,631.026611 639.557312,629.971069 
	C641.558655,629.568054 643.437012,628.304138 645.239380,627.214233 
	C649.137329,624.856934 652.953186,622.363525 656.795105,619.914124 
	C657.624817,619.385193 658.883911,618.976746 659.161072,618.224060 
	C660.971313,613.308594 665.309326,612.456482 669.549988,611.082458 
	C671.474365,610.458923 673.807251,609.068115 674.614075,607.383301 
	C677.712280,600.913513 682.724731,599.032837 689.822205,600.076843 
	C687.879395,605.856201 686.208130,612.070190 682.930786,617.272339 
	C672.101562,634.461426 655.648376,644.396912 636.646973,649.951050 
	C626.655579,652.871521 616.140320,654.000000 605.427734,655.861816 
z"/>
<path fill="#C9E7F8" opacity="1.000000" stroke="none" 
	d="
M558.986267,521.842957 
	C558.188843,520.908630 557.391357,519.974243 556.409973,518.824402 
	C561.577881,514.679871 567.361145,512.491028 574.255432,511.775787 
	C580.513672,511.126495 586.585876,508.611908 592.718689,506.845276 
	C599.325256,504.942139 605.855530,502.749939 612.514893,501.061737 
	C618.352539,499.581787 624.085999,497.425201 630.451294,498.794434 
	C632.281128,499.188019 634.688599,497.340546 636.710449,496.288513 
	C639.471130,494.852081 642.018494,492.981171 644.835754,491.684021 
	C648.329102,490.075562 651.307434,490.635254 653.060059,494.966644 
	C650.043762,497.605499 646.706909,500.029114 643.313293,502.493896 
	C643.895813,503.032776 644.468445,503.562561 645.011536,504.816162 
	C643.227295,506.360809 641.453125,507.924561 639.721252,507.879028 
	C630.172241,507.628021 622.448669,513.757935 613.323730,515.168884 
	C610.382080,515.623657 607.854614,517.094360 604.509827,516.198975 
	C602.328552,515.615112 599.686340,516.753418 597.250610,517.120361 
	C598.187439,518.982117 599.124329,520.843811 599.590210,522.771606 
	C585.741577,522.506104 572.363953,522.174561 558.986267,521.842957 
z"/>

<path fill="#0E90F7" opacity="1.000000" stroke="none" 
	d="
M622.006714,618.070129 
	C622.110352,619.554199 622.112427,621.053833 622.336731,622.519409 
	C623.003418,626.873718 620.351685,628.537537 616.889954,630.054932 
	C613.557556,631.515747 609.910095,633.026184 607.436584,635.535583 
	C599.679016,643.405640 590.756592,648.739563 579.909241,651.099426 
	C576.357483,651.872070 571.544373,650.764526 570.007019,656.294922 
	C563.300598,656.724060 556.604614,656.794922 549.465637,656.394104 
	C551.064087,654.607849 552.994385,653.061096 555.167114,652.020569 
	C563.013367,648.262878 571.078613,644.939087 578.784485,640.920837 
	C583.112610,638.663757 586.911438,635.384521 590.923340,632.529968 
	C595.021057,629.614502 600.273254,627.958374 602.372009,622.309814 
	C603.488892,622.165466 604.248901,622.159363 605.116943,622.293701 
	C605.486633,622.300415 605.748291,622.166565 606.327942,621.846680 
	C608.097839,621.466187 609.549744,621.271729 611.177979,621.378235 
	C615.281006,624.896362 616.957581,621.456665 619.282349,618.913452 
	C620.379639,618.511108 621.193176,618.290649 622.006714,618.070129 
z"/>
<path fill="#1491F3" opacity="1.000000" stroke="none" 
	d="
M694.040894,586.777466 
	C686.500610,583.598572 681.232483,587.141663 675.327515,591.455627 
	C671.143738,594.512146 665.225891,595.158386 660.140137,597.037659 
	C658.417969,597.674011 656.177124,598.381165 655.363953,599.758850 
	C650.863098,607.384033 650.989014,607.458374 643.351685,604.651428 
	C649.194519,597.675659 652.339905,589.613892 654.695312,581.059326 
	C657.589478,581.711121 660.439880,583.343933 662.605164,582.694153 
	C668.446350,580.940918 674.030151,578.294861 679.650391,575.851807 
	C684.724487,573.646179 689.711731,571.240601 694.737305,568.923218 
	C694.555969,574.765503 694.374695,580.607727 694.040894,586.777466 
z"/>
<path fill="#24A1F9" opacity="1.000000" stroke="none" 
	d="
M512.096069,655.947876 
	C512.052734,654.572021 512.009460,653.196167 512.485718,651.415894 
	C516.161560,650.265198 519.588928,650.070068 522.425842,648.674561 
	C533.072144,643.437500 543.550415,637.854919 554.021301,632.270020 
	C555.395325,631.537170 556.501770,630.146973 557.481506,628.869080 
	C558.784485,627.169678 559.841309,625.281677 561.430786,623.359131 
	C567.594177,623.314209 573.330688,623.384766 579.046631,623.855835 
	C577.319031,626.521301 576.039246,629.404724 573.824524,630.935120 
	C567.208374,635.506714 560.072205,639.323303 553.432007,643.863281 
	C547.453125,647.951172 541.949585,652.697266 534.196899,653.193420 
	C533.384521,653.245422 532.710938,655.465332 531.972900,656.679443 
	C525.963806,656.742249 519.954773,656.805054 513.381104,656.621704 
	C512.597107,656.197937 512.356995,656.055420 512.096069,655.947876 
z"/>
<path fill="#B5DFF7" opacity="1.000000" stroke="none" 
	d="
M600.061157,522.705566 
	C599.124329,520.843811 598.187439,518.982117 597.250610,517.120361 
	C599.686340,516.753418 602.328552,515.615112 604.509827,516.198975 
	C607.854614,517.094360 610.382080,515.623657 613.323730,515.168884 
	C622.448669,513.757935 630.172241,507.628021 639.721252,507.879028 
	C641.453125,507.924561 643.227295,506.360809 645.056396,505.132751 
	C651.615967,507.628235 658.101074,510.531006 664.350952,513.711121 
	C656.271423,515.427856 648.339661,516.515442 640.613525,518.431763 
	C635.554443,519.686584 630.724487,521.990173 625.943787,524.158875 
	C624.671326,524.736084 623.958496,526.546997 622.612793,527.780396 
	C614.844910,526.081482 607.453064,524.393494 600.061157,522.705566 
z"/>
<path fill="#1A96F1" opacity="1.000000" stroke="none" 
	d="
M532.430542,656.792725 
	C532.710938,655.465332 533.384521,653.245422 534.196899,653.193420 
	C541.949585,652.697266 547.453125,647.951172 553.432007,643.863281 
	C560.072205,639.323303 567.208374,635.506714 573.824524,630.935120 
	C576.039246,629.404724 577.319031,626.521301 579.476929,623.759033 
	C587.290283,622.990540 594.652710,622.719299 602.015198,622.448059 
	C600.273254,627.958374 595.021057,629.614502 590.923340,632.529968 
	C586.911438,635.384521 583.112610,638.663757 578.784485,640.920837 
	C571.078613,644.939087 563.013367,648.262878 555.167114,652.020569 
	C552.994385,653.061096 551.064087,654.607849 549.009033,656.283325 
	C543.626343,656.731445 538.257263,656.818726 532.430542,656.792725 
z"/>
<path fill="#68BEF6" opacity="1.000000" stroke="none" 
	d="
M678.864136,526.999207 
	C681.859985,531.426575 684.855774,535.853882 687.496460,540.637939 
	C686.483215,541.050781 685.791443,540.994446 685.172241,541.180054 
	C677.341248,543.526794 669.417297,545.623413 661.743530,548.407898 
	C658.191284,549.696777 655.131897,552.343994 651.596313,554.121216 
	C647.873169,548.665161 644.402710,543.463318 641.070984,537.934753 
	C642.832886,537.094299 644.427307,536.306946 646.086182,536.132507 
	C648.437561,535.885193 651.029175,536.688660 653.180969,535.995789 
	C661.812683,533.216431 670.314392,530.033142 678.864136,526.999207 
z"/>
<path fill="#E7F0F5" opacity="1.000000" stroke="none" 
	d="
M669.159912,475.254211 
	C666.471558,468.784180 665.014954,468.327759 658.438538,469.231720 
	C652.808105,470.005646 648.074585,471.604095 644.155884,476.070648 
	C641.279846,479.348755 637.483887,478.120758 634.124329,476.059906 
	C632.570435,475.106689 631.010559,474.163361 629.129028,473.062988 
	C631.751770,468.120361 634.698792,463.330292 637.888794,458.289337 
	C644.188049,460.626648 650.454773,460.573944 656.814697,459.585815 
	C660.551514,459.005188 664.328125,458.019073 668.043884,458.183807 
	C670.778381,458.305023 673.443298,459.995361 676.530029,460.991180 
	C674.907654,465.913300 672.894470,470.830750 670.602661,475.933411 
	C669.989502,475.913544 669.655090,475.708527 669.159912,475.254211 
z"/>
<path fill="#45ADF5" opacity="1.000000" stroke="none" 
	d="
M651.849060,554.375427 
	C655.131897,552.343994 658.191284,549.696777 661.743530,548.407898 
	C669.417297,545.623413 677.341248,543.526794 685.172241,541.180054 
	C685.791443,540.994446 686.483215,541.050781 687.532654,540.987976 
	C689.647705,545.719604 691.371338,550.458008 692.595093,555.596069 
	C687.381653,556.675720 681.998901,556.141968 678.096497,558.293396 
	C670.460815,562.502991 663.014404,565.667847 654.009583,563.640625 
	C653.183044,560.318237 652.516052,557.346802 651.849060,554.375427 
z"/>
<path fill="#D9D9D9" opacity="1.000000" stroke="none" 
	d="
M272.241943,749.365601 
	C275.930695,756.554199 273.072479,762.403625 265.638306,762.851379 
	C259.024384,763.249817 252.367508,762.935120 245.309357,762.935120 
	C245.309357,752.903503 245.309357,743.204773 245.309357,733.192993 
	C252.369263,733.192993 259.497009,732.724670 266.529602,733.341553 
	C272.134216,733.833130 274.605194,739.793518 271.492096,744.737366 
	C270.196991,746.794128 270.133728,747.797791 272.241943,749.365601 
M266.684418,758.838867 
	C267.772888,756.847351 269.699310,754.835449 269.651581,752.871582 
	C269.620392,751.588501 266.808899,749.457031 265.098083,749.301819 
	C259.884308,748.829102 254.600342,749.130371 249.194733,749.130371 
	C249.194733,752.707214 249.194733,755.751160 249.194733,759.070129 
	C254.943649,759.070129 260.389282,759.070129 266.684418,758.838867 
M266.172821,736.931213 
	C260.494843,736.931213 254.816833,736.931213 249.095062,736.931213 
	C249.095062,739.900085 249.095062,742.479431 249.095062,745.465027 
	C254.163101,745.465027 258.963928,745.708252 263.715912,745.332947 
	C265.377747,745.201721 267.727448,743.873169 268.283142,742.494812 
	C268.814209,741.177551 267.421265,739.084656 266.172821,736.931213 
z"/>
<path fill="#D9D9D9" opacity="1.000000" stroke="none" 
	d="
M298.223755,759.447876 
	C298.224548,750.554260 298.224548,742.103210 298.224548,733.199280 
	C305.742310,733.199280 313.028320,732.559082 320.143066,733.388367 
	C326.608032,734.141846 327.971771,740.852905 323.236053,747.128235 
	C326.956085,749.797424 328.541351,753.433411 326.674866,757.836304 
	C324.743896,762.391296 320.645325,763.036499 316.271332,762.995728 
	C311.456421,762.950745 306.638794,762.943359 301.825836,763.061035 
	C299.504272,763.117737 297.799500,762.800293 298.223755,759.447876 
M321.166656,749.905212 
	C314.991333,749.501587 308.816010,749.097900 302.473633,748.683289 
	C302.473633,752.782898 302.473633,755.712524 302.473633,759.210693 
	C307.803772,759.210693 312.914948,759.423157 318.000610,759.153809 
	C323.646027,758.854919 325.123474,755.236145 321.166656,749.905212 
M307.730713,736.367371 
	C305.974579,736.455078 304.218475,736.542786 302.436584,736.631714 
	C302.436584,739.778076 302.436584,742.359924 302.436584,745.260193 
	C307.795532,745.260193 312.922241,745.571777 317.969269,745.074585 
	C319.529510,744.920898 322.198608,742.337708 322.015228,741.269409 
	C321.714600,739.518188 319.737518,737.190186 318.033112,736.736145 
	C315.082306,735.950256 311.799225,736.411804 307.730713,736.367371 
z"/>
<path fill="#D9D9D9" opacity="1.000000" stroke="none" 
	d="
M404.786133,756.758850 
	C404.752625,758.220398 404.988556,759.323730 404.638336,760.190063 
	C404.233185,761.192383 403.312225,761.986206 402.615173,762.870483 
	C402.046173,762.035583 400.993866,761.207153 400.982574,760.364807 
	C400.862732,751.409180 400.908203,742.451416 400.908203,732.414612 
	C410.203949,735.277588 411.231354,744.785706 417.273773,749.297058 
	C423.420105,744.966553 424.168579,735.257629 433.562042,732.327148 
	C433.562042,742.494629 433.608643,751.599670 433.478821,760.702209 
	C433.467712,761.480835 432.283203,762.242798 431.643738,763.012512 
	C430.960388,762.111694 429.710297,761.226562 429.684967,760.307617 
	C429.511078,754.002014 429.593689,747.689392 428.516235,740.826050 
	C424.894470,745.572327 421.272705,750.318542 417.147400,755.724609 
	C413.238953,750.434875 409.636871,745.559753 406.034790,740.684631 
	C405.622040,740.733398 405.209259,740.782166 404.796509,740.830933 
	C404.796509,745.985901 404.796509,751.140869 404.786133,756.758850 
z"/>
<path fill="#066BD0" opacity="1.000000" stroke="none" 
	d="
M628.551758,732.444824 
	C633.510803,733.154114 638.091614,733.713806 642.539185,734.812683 
	C643.519348,735.054871 644.026917,737.209534 644.688171,738.371155 
	C638.464966,737.713135 633.329529,736.804565 628.198608,736.829346 
	C626.445984,736.837769 624.704712,739.189392 622.958252,740.470337 
	C624.571167,741.836365 625.984497,743.876038 627.839294,744.425354 
	C631.478210,745.503052 635.387817,745.626465 639.139099,746.376099 
	C643.170593,747.181763 646.436890,749.056458 646.628296,753.761108 
	C646.818176,758.426880 644.306274,761.379456 639.997620,762.554932 
	C633.012817,764.460571 626.171387,764.178345 619.776489,760.283875 
	C617.071777,758.636658 616.690491,756.982849 619.835815,754.960327 
	C624.490234,759.622559 630.435181,760.287292 636.448242,759.107361 
	C638.566284,758.691711 640.268188,756.155762 642.160034,754.587891 
	C640.432190,753.106201 638.922241,751.044250 636.920227,750.292297 
	C634.510681,749.387207 631.673096,749.666870 629.037842,749.308777 
	C622.069519,748.361755 618.775208,745.836548 618.528809,741.362671 
	C618.278015,736.808044 621.195496,734.110352 628.551758,732.444824 
z"/>
<path fill="#E8E8E8" opacity="1.000000" stroke="none" 
	d="
M27.676277,525.952637 
	C24.859684,506.419067 21.987926,486.892883 19.358519,467.334137 
	C19.194429,466.113525 20.929895,464.637543 21.781599,463.280365 
	C23.180506,464.848633 25.523460,466.262817 25.809143,468.012817 
	C26.850409,474.391327 27.057718,480.900055 27.850605,487.326263 
	C29.169853,498.018585 30.698561,508.685028 32.011215,520.071655 
	C31.531939,523.359680 31.168255,525.928589 27.676277,525.952637 
z"/>
<path fill="#0779DD" opacity="1.000000" stroke="none" 
	d="
M444.000000,801.853882 
	C453.983490,801.856079 463.470917,802.019043 472.948730,801.788513 
	C477.400208,801.680176 478.021729,803.593323 476.908051,807.535278 
	C453.466522,807.535278 430.101929,807.535278 406.267914,807.535278 
	C406.157959,805.878418 406.054260,804.315674 405.890869,801.853333 
	C418.687775,801.853333 431.093903,801.853333 444.000000,801.853882 
z"/>
<path fill="#0779DD" opacity="1.000000" stroke="none" 
	d="
M573.071960,762.953735 
	C570.291077,762.949280 567.996704,762.949280 565.337036,762.949280 
	C565.337036,752.894592 565.337036,743.332092 565.337036,733.235291 
	C572.743958,733.235291 580.226379,732.556519 587.518555,733.443176 
	C593.704895,734.195374 594.658203,740.367737 590.203674,747.098877 
	C592.272278,750.293884 596.248535,752.746338 593.263489,757.739807 
	C591.364380,760.916626 589.229492,762.906006 585.550903,762.962646 
	C581.554382,763.024231 577.556030,762.964783 573.071960,762.953735 
M586.481018,749.481812 
	C580.762024,749.481812 575.043030,749.481812 569.384888,749.481812 
	C569.384888,752.937744 569.384888,755.841553 569.384888,759.070801 
	C575.004700,759.070801 580.315002,759.424927 585.529297,758.872498 
	C587.278076,758.687256 589.546265,756.440979 590.125610,754.663635 
	C590.502930,753.506104 588.261414,751.494934 586.481018,749.481812 
M582.888855,746.588623 
	C583.749939,746.102356 584.835388,745.802551 585.426025,745.091553 
	C586.718811,743.535400 588.476868,741.834045 588.633545,740.066956 
	C588.726074,739.022888 586.196777,736.849792 584.717529,736.726074 
	C579.667114,736.303528 574.559570,736.564209 569.416382,736.564209 
	C569.416382,739.976318 569.416382,742.845337 569.416382,745.673279 
	C573.901733,746.023926 577.988586,746.343445 582.888855,746.588623 
z"/>
<path fill="#8CCDF6" opacity="1.000000" stroke="none" 
	d="
M678.836121,526.664185 
	C670.314392,530.033142 661.812683,533.216431 653.180969,535.995789 
	C651.029175,536.688660 648.437561,535.885193 646.086182,536.132507 
	C644.427307,536.306946 642.832886,537.094299 640.772156,537.834961 
	C639.093933,537.010071 637.853149,535.958252 636.705811,534.508789 
	C639.007324,532.321411 640.981079,530.047791 643.471680,528.840881 
	C648.918579,526.201355 654.832581,524.482483 660.139404,521.616577 
	C662.616272,520.278992 664.125183,517.148926 666.072815,514.831299 
	C670.317871,518.663940 674.562988,522.496582 678.836121,526.664185 
z"/>

<path fill="#E8E8E8" opacity="1.000000" stroke="none" 
	d="
M847.092896,514.022095 
	C848.963562,498.545868 850.716248,483.053131 852.878967,467.617828 
	C853.107056,465.989868 855.747742,464.700012 857.269165,463.253296 
	C857.919189,464.913086 859.292786,466.658508 859.108032,468.219391 
	C857.158020,484.688568 854.959473,501.128357 852.310608,517.698608 
	C850.225464,516.554626 848.659180,515.288391 847.092896,514.022095 
z"/>
<path fill="#A3D7F8" opacity="1.000000" stroke="none" 
	d="
M665.970154,514.590820 
	C664.125183,517.148926 662.616272,520.278992 660.139404,521.616577 
	C654.832581,524.482483 648.918579,526.201355 643.471680,528.840881 
	C640.981079,530.047791 639.007324,532.321411 636.348572,534.404297 
	C631.594910,532.395386 627.291809,530.093445 622.988770,527.791443 
	C623.958496,526.546997 624.671326,524.736084 625.943787,524.158875 
	C630.724487,521.990173 635.554443,519.686584 640.613525,518.431763 
	C648.339661,516.515442 656.271423,515.427856 664.514648,514.000977 
	C665.231445,514.125854 665.549438,514.238098 665.970154,514.590820 
z"/>
<path fill="#24A1F9" opacity="1.000000" stroke="none" 
	d="
M694.813904,568.502747 
	C689.711731,571.240601 684.724487,573.646179 679.650391,575.851807 
	C674.030151,578.294861 668.446350,580.940918 662.605164,582.694153 
	C660.439880,583.343933 657.589478,581.711121 654.648071,580.643005 
	C654.336609,578.774780 654.428528,577.382874 654.907349,575.990234 
	C660.288452,574.051941 665.334595,572.237000 670.265015,570.148804 
	C678.110474,566.825928 685.878662,563.320862 693.679565,559.892883 
	C694.083252,562.622681 694.486877,565.352478 694.813904,568.502747 
z"/>
<path fill="#066BD0" opacity="1.000000" stroke="none" 
	d="
M537.754761,753.131836 
	C539.264771,756.287903 540.611267,759.108887 541.957764,761.929810 
	C541.590942,762.388428 541.224060,762.847107 540.857239,763.305725 
	C539.380737,762.260681 537.144348,761.522827 536.573730,760.111511 
	C535.016846,756.260864 532.556396,754.766785 528.542236,755.122742 
	C526.402161,755.312500 524.202026,755.284180 522.070801,755.018738 
	C517.877625,754.496521 515.214783,755.911499 513.558960,759.996033 
	C512.948547,761.501831 510.730835,762.356018 509.246216,763.507385 
	C508.790558,763.043945 508.334900,762.580505 507.879272,762.117065 
	C512.656311,752.866638 517.309326,743.548706 522.284302,734.405945 
	C523.830322,731.564697 526.714478,732.000732 528.385315,735.110291 
	C531.530823,740.964478 534.530823,746.896851 537.754761,753.131836 
M519.819336,747.677002 
	C519.530090,748.696533 519.240845,749.716064 518.925171,750.828735 
	C523.173279,750.828735 526.995728,750.828735 531.673584,750.828735 
	C529.471313,746.235657 527.604919,742.342957 525.713013,738.397217 
	C524.952576,738.834412 524.554749,738.923340 524.422852,739.160339 
	C522.982727,741.747437 521.584229,744.357666 519.819336,747.677002 
z"/>
<path fill="#32A7F9" opacity="1.000000" stroke="none" 
	d="
M693.727905,559.494751 
	C685.878662,563.320862 678.110474,566.825928 670.265015,570.148804 
	C665.334595,572.237000 660.288452,574.051941 654.882690,575.531433 
	C654.370483,571.379395 654.269836,567.685486 654.169189,563.991577 
	C663.014404,565.667847 670.460815,562.502991 678.096497,558.293396 
	C681.998901,556.141968 687.381653,556.675720 692.550781,555.993042 
	C693.262878,557.025696 693.519592,558.061157 693.727905,559.494751 
z"/>
<path fill="#D9D9D9" opacity="1.000000" stroke="none" 
	d="
M363.765961,756.973267 
	C367.387207,749.825745 370.602600,742.885132 374.090454,736.084290 
	C374.861542,734.580750 376.596558,733.571533 377.887726,732.334717 
	C378.451019,732.757935 379.014282,733.181152 379.577545,733.604370 
	C378.155975,736.470459 376.702454,739.321228 375.319427,742.205811 
	C372.372345,748.352234 369.538574,754.554382 366.505493,760.657776 
	C364.878601,763.931519 362.124115,764.250427 360.622528,761.266968 
	C356.076019,752.233826 351.779846,743.074707 347.316071,733.819336 
	C350.462799,731.879517 351.608856,733.628479 352.742096,735.925903 
	C356.258545,743.054810 359.878479,750.132812 363.765961,756.973267 
z"/>
<path fill="#E8E8E8" opacity="1.000000" stroke="none" 
	d="
M363.580811,245.018570 
	C362.375214,245.448563 360.795532,245.979172 359.215363,245.980469 
	C315.156738,246.016586 271.098083,246.007248 227.039474,245.957260 
	C225.452164,245.955460 223.865402,245.465759 222.497803,244.730301 
	C223.478165,244.169266 224.239105,244.081375 225.000061,243.993469 
	C233.808395,244.069473 242.616592,244.164917 251.425064,244.218094 
	C288.685486,244.443069 325.945984,244.655472 363.580811,245.018570 
z"/>
<path fill="#E8E8E8" opacity="1.000000" stroke="none" 
	d="
M849.178711,416.353882 
	C852.603821,409.477844 861.683533,409.854248 864.672302,415.965790 
	C866.539185,419.783264 866.076782,423.486755 862.797119,426.404175 
	C859.742554,429.121185 856.204163,429.576782 852.683167,427.386017 
	C848.652283,424.878021 847.225952,421.293365 849.178711,416.353882 
z"/>
<path fill="#E8E8E8" opacity="1.000000" stroke="none" 
	d="
M17.566151,427.564728 
	C13.413786,424.829895 12.009095,421.279877 13.572119,416.995209 
	C14.952669,413.210724 17.938190,411.088013 22.066092,411.240540 
	C26.031513,411.387054 28.990988,413.742432 29.567814,417.415802 
	C29.980309,420.042633 29.227709,423.433075 27.743444,425.641785 
	C25.482512,429.006287 21.695951,429.444031 17.566151,427.564728 
z"/>
<path fill="#066BD0" opacity="1.000000" stroke="none" 
	d="
M483.551270,762.961792 
	C475.990753,762.966858 468.876587,762.966858 461.074768,762.966858 
	C461.074768,753.377075 461.026917,744.285461 461.158203,735.196472 
	C461.169739,734.398438 462.355469,733.617371 462.995789,732.828430 
	C463.792542,733.836365 465.231903,734.815247 465.279083,735.857117 
	C465.534821,741.504822 465.448700,747.168152 465.475220,752.826050 
	C465.483704,754.634705 465.476532,756.443481 465.476532,759.196960 
	C471.880096,759.196960 477.970398,759.098572 484.051941,759.285034 
	C485.183777,759.319763 486.280487,760.499451 487.393402,761.150757 
	C486.261475,761.752747 485.129517,762.354797 483.551270,762.961792 
z"/>

<path fill="#0889F8" opacity="1.000000" stroke="none" 
	d="
M813.194336,632.735107 
	C811.386841,631.975464 809.815674,630.971313 807.877563,629.925110 
	C811.424683,621.381897 815.338806,612.880676 819.893799,604.174927 
	C822.021667,604.317078 823.508606,604.663879 824.995605,605.010681 
	C824.054993,608.097351 823.405457,611.312256 822.113342,614.244019 
	C819.398010,620.404968 816.345154,626.417297 813.194336,632.735107 
z"/>
<path fill="#0779DD" opacity="1.000000" stroke="none" 
	d="
M294.104797,597.386169 
	C282.951904,607.567810 271.799042,617.749451 259.790405,628.712341 
	C259.992737,624.477295 260.002167,624.486938 268.470856,616.225281 
	C271.912170,612.868103 275.302490,609.458557 279.081604,605.713074 
	C279.701447,605.052063 279.955627,604.750854 280.209839,604.449707 
	C284.066620,600.868713 287.923370,597.287720 292.152527,593.380615 
	C292.524933,593.054565 293.001892,593.029785 293.051270,593.401733 
	C293.435364,594.977905 293.770081,596.182007 294.104797,597.386169 
z"/>
<path fill="#1A96F1" opacity="1.000000" stroke="none" 
	d="
M68.540695,624.516907 
	C66.768181,625.228516 64.896103,625.592651 62.624023,625.961792 
	C59.024540,619.189392 55.825054,612.411987 53.014221,605.305786 
	C55.502708,605.278931 57.602539,605.580933 59.702370,605.882935 
	C61.873295,610.618713 64.044212,615.354492 66.163284,620.700317 
	C66.208534,621.631958 66.418350,621.839172 66.740891,621.932007 
	C67.307640,622.677795 67.874374,623.423584 68.540695,624.516907 
z"/>
<path fill="#D9D9D9" opacity="1.000000" stroke="none" 
	d="
M27.618595,526.337646 
	C31.168255,525.928589 31.531939,523.359680 31.928947,520.424072 
	C33.960083,527.420410 35.945641,534.773560 37.558235,542.552246 
	C35.511745,543.625122 33.838219,544.272461 32.164696,544.919739 
	C30.630100,538.854004 29.095505,532.788330 27.618595,526.337646 
z"/>
<path fill="#A3D7F8" opacity="1.000000" stroke="none" 
	d="
M32.140160,545.323730 
	C33.838219,544.272461 35.511745,543.625122 37.545959,542.963989 
	C39.908901,549.694702 41.911160,556.439392 43.590961,563.532776 
	C41.908035,560.803040 39.329792,561.702026 36.951633,561.947510 
	C35.339634,556.540955 33.727631,551.134338 32.140160,545.323730 
z"/>
<path fill="#C9E7F8" opacity="1.000000" stroke="none" 
	d="
M846.905273,514.349243 
	C848.659180,515.288391 850.225464,516.554626 852.103394,517.999634 
	C850.996887,524.534973 849.578796,530.891541 847.818115,537.434143 
	C846.034241,536.098694 844.592957,534.577148 843.151733,533.055603 
	C844.340332,526.929199 845.528931,520.802734 846.905273,514.349243 
z"/>
<path fill="#45ADF5" opacity="1.000000" stroke="none" 
	d="
M59.630302,605.483643 
	C57.602539,605.580933 55.502708,605.278931 53.015472,604.961975 
	C50.348808,599.489746 48.069542,594.032532 46.035027,588.269531 
	C48.434677,588.249878 50.589577,588.535950 52.744476,588.822021 
	C55.015732,594.242859 57.286983,599.663635 59.630302,605.483643 
z"/>

<path fill="#0779DD" opacity="1.000000" stroke="none" 
	d="
M614.161621,303.301453 
	C609.042908,308.530670 603.924194,313.759949 598.282715,318.862152 
	C595.403870,319.424774 593.047913,320.114502 590.691895,320.804199 
	C597.898376,314.231140 605.104797,307.658112 612.779968,301.300049 
	C613.552979,302.110504 613.857300,302.705963 614.161621,303.301453 
z"/>
<path fill="#1491F3" opacity="1.000000" stroke="none" 
	d="
M294.410583,597.254883 
	C293.770081,596.182007 293.435364,594.977905 293.152405,593.164917 
	C293.591766,592.008728 293.979370,591.461365 294.367004,590.913940 
	C295.790100,589.655090 297.213226,588.396179 298.829773,586.833801 
	C300.668091,585.076111 302.312927,583.621948 304.467834,581.750610 
	C305.223145,581.251282 305.468384,581.169250 305.916687,580.979614 
	C306.396729,580.527893 306.673676,580.183716 306.938049,579.875977 
	C306.925446,579.912354 306.871613,579.856995 307.243866,579.903870 
	C309.282043,580.289978 310.947937,580.629272 312.474670,581.248047 
	C307.862030,585.670898 303.388580,589.814209 298.915100,593.957581 
	C297.515533,595.012939 296.115936,596.068298 294.410583,597.254883 
z"/>
<path fill="#68BEF6" opacity="1.000000" stroke="none" 
	d="
M313.657715,573.472412 
	C315.193878,571.924622 316.730072,570.376831 318.424225,568.528870 
	C320.786865,566.262756 322.991547,564.296875 325.489594,562.217773 
	C327.862335,561.250061 330.129425,560.686401 331.986328,559.487427 
	C337.803253,555.731445 343.465485,551.735901 349.547668,547.850098 
	C343.978729,553.199219 338.049805,558.531372 331.430664,563.983215 
	C328.556946,565.158020 326.316742,566.111450 324.202728,567.291016 
	C320.645508,569.275818 317.168457,571.404297 313.657715,573.472412 
z"/>
<path fill="#066BD0" opacity="1.000000" stroke="none" 
	d="
M614.468140,303.142883 
	C613.857300,302.705963 613.552979,302.110504 613.108765,301.210815 
	C621.095642,293.658630 629.222473,286.410706 637.886230,279.172882 
	C638.634399,279.445465 638.845581,279.707916 639.056824,279.970337 
	C630.962769,287.641663 622.868774,295.313019 614.468140,303.142883 
z"/>
<path fill="#A3D7F8" opacity="1.000000" stroke="none" 
	d="
M842.943359,533.358032 
	C844.592957,534.577148 846.034241,536.098694 847.740967,537.817871 
	C846.776550,542.142517 845.546692,546.269470 843.787109,550.538208 
	C841.792236,550.439758 840.327026,550.199646 838.861877,549.959534 
	C840.152893,544.526550 841.443909,539.093506 842.943359,533.358032 
z"/>
<path fill="#1A96F1" opacity="1.000000" stroke="none" 
	d="
M590.388184,320.933075 
	C593.047913,320.114502 595.403870,319.424774 597.963318,318.966583 
	C595.656860,321.680786 593.147034,324.163483 590.184082,326.627441 
	C589.602539,326.872284 589.473999,327.135864 589.345459,327.399414 
	C589.345459,327.399414 589.210266,327.292145 588.975586,327.297913 
	C588.566223,327.656250 588.391479,328.008850 588.216675,328.361420 
	C588.216675,328.361420 588.280273,328.224091 587.966003,328.189575 
	C585.766602,329.689606 583.881409,331.224152 581.691040,332.912964 
	C579.213806,334.672333 577.041809,336.277435 574.516785,337.902344 
	C573.215637,337.973206 572.267517,338.024323 571.319458,338.075378 
	C577.574402,332.404236 583.829407,326.733093 590.388184,320.933075 
z"/>
<path fill="#1A96F1" opacity="1.000000" stroke="none" 
	d="
M825.254517,604.786255 
	C823.508606,604.663879 822.021667,604.317078 820.143433,603.948242 
	C821.493164,599.419189 823.234192,594.912231 825.626282,590.204346 
	C828.030151,590.396545 829.782959,590.789551 831.535706,591.182617 
	C829.528259,595.642395 827.520813,600.102112 825.254517,604.786255 
z"/>
<path fill="#45ADF5" opacity="1.000000" stroke="none" 
	d="
M831.739014,590.922729 
	C829.782959,590.789551 828.030151,590.396545 825.829529,589.949707 
	C826.714844,586.078186 828.047974,582.260376 829.907471,578.001587 
	C830.570129,577.136841 830.706360,576.713074 830.842590,576.289246 
	C830.842590,576.289246 830.535461,576.337036 830.986084,576.178528 
	C833.040588,576.050720 834.644531,576.081421 836.248535,576.112061 
	C834.813171,580.962402 833.377747,585.812683 831.739014,590.922729 
z"/>
<path fill="#68BEF6" opacity="1.000000" stroke="none" 
	d="
M52.647125,588.380066 
	C50.589577,588.535950 48.434677,588.249878 45.877499,587.959595 
	C44.062889,583.880615 42.650558,579.805847 41.624008,575.289185 
	C43.750366,574.574158 45.490940,574.301086 47.231514,574.028076 
	C48.578228,577.726074 49.924942,581.424133 51.156342,585.662903 
	C51.049465,586.411926 51.121834,586.594788 51.258148,586.752258 
	C51.688698,587.147522 52.119240,587.542786 52.647125,588.380066 
z"/>
<path fill="#8CCDF6" opacity="1.000000" stroke="none" 
	d="
M838.609131,550.216187 
	C840.327026,550.199646 841.792236,550.439758 843.599731,550.829834 
	C842.700745,555.747192 841.459412,560.514648 839.855347,565.414185 
	C838.090881,564.310486 836.689209,563.074707 835.287537,561.838867 
	C836.310486,558.050171 837.333496,554.261536 838.609131,550.216187 
z"/>
<path fill="#68BEF6" opacity="1.000000" stroke="none" 
	d="
M574.869873,337.882538 
	C577.041809,336.277435 579.213806,334.672333 581.720215,333.124207 
	C582.112976,333.468445 582.260925,333.697876 582.498413,333.869476 
	C575.862427,339.883392 569.226501,345.897339 562.339172,352.036316 
	C561.142395,352.045380 560.196899,351.929413 559.044189,351.422516 
	C561.234497,348.369354 563.632080,345.707153 566.029663,343.044952 
	C566.029663,343.044952 566.000000,343.000000 566.348755,343.025940 
	C567.154419,342.402649 567.611267,341.753448 568.068054,341.104218 
	C568.068054,341.104218 568.031799,341.030609 568.367065,341.100647 
	C569.103027,341.110077 569.503723,341.049500 570.262451,340.995941 
	C572.036987,339.962799 573.453430,338.922668 574.869873,337.882538 
z"/>
<path fill="#68BEF6" opacity="1.000000" stroke="none" 
	d="
M835.094971,562.105347 
	C836.689209,563.074707 838.090881,564.310486 839.772461,565.762512 
	C839.006165,569.292603 837.959900,572.606445 836.581055,576.016174 
	C834.644531,576.081421 833.040588,576.050720 830.946167,576.028320 
	C831.937927,571.481628 833.420166,566.926758 835.094971,562.105347 
z"/>


<path fill="#8CCDF6" opacity="1.000000" stroke="none" 
	d="
M47.090370,573.616516 
	C45.490940,574.301086 43.750366,574.574158 41.641552,574.911011 
	C39.809231,570.861267 38.345150,566.747620 36.916351,562.290771 
	C39.329792,561.702026 41.908035,560.803040 43.594032,563.946899 
	C44.709454,566.387207 45.499352,568.762146 46.148994,571.669189 
	C46.002686,572.414246 46.063831,572.605774 46.192169,572.775818 
	C46.444523,572.918884 46.696873,573.061951 47.090370,573.616516 
z"/>

<path fill="#257BB5" opacity="1.000000" stroke="none" 
	d="
M565.692261,343.092102 
	C563.632080,345.707153 561.234497,348.369354 558.753418,351.365479 
	C557.646790,352.596924 556.623535,353.494415 555.118225,354.353699 
	C554.332703,354.790161 554.029358,355.264801 553.726013,355.739471 
	C553.557556,356.006531 553.352661,356.241821 552.611328,356.612183 
	C551.684753,357.200226 551.257996,357.621521 550.831238,358.042786 
	C550.647095,358.065308 550.463013,358.087830 550.078369,357.917480 
	C551.573792,355.719360 553.269775,353.714142 555.045227,351.380402 
	C558.534790,348.414337 561.944824,345.776794 565.692261,343.092102 
z"/>

<path fill="#0A3358" opacity="1.000000" stroke="none" 
	d="
M249.112320,637.473083 
	C244.443039,641.730957 239.773758,645.988770 234.587616,650.142822 
	C234.070755,650.038940 233.724472,649.698792 233.724472,649.698792 
	C238.086700,645.470459 242.448929,641.242188 247.540833,637.134277 
	C248.551117,637.327576 248.831726,637.400330 249.112320,637.473083 
z"/>
<path fill="#257BB5" opacity="1.000000" stroke="none" 
	d="
M639.353760,279.834198 
	C638.845581,279.707916 638.634399,279.445465 638.202148,279.056671 
	C642.140808,275.089417 646.300537,271.248505 651.125244,267.251953 
	C652.050842,267.074036 652.311462,267.051727 652.572083,267.029419 
	C648.264954,271.252289 643.957825,275.475159 639.353760,279.834198 
z"/>
<path fill="#066BD0" opacity="1.000000" stroke="none" 
	d="
M249.406311,637.271545 
	C248.831726,637.400330 248.551117,637.327576 247.858734,637.114990 
	C250.401276,634.012634 253.355621,631.049988 256.787933,628.250122 
	C257.625275,628.652039 257.984650,628.891174 258.344025,629.130249 
	C255.462769,631.776855 252.581543,634.423401 249.406311,637.271545 
z"/>

<path fill="#0A3358" opacity="1.000000" stroke="none" 
	d="
M234.250549,650.201904 
	C231.504822,653.411316 228.579300,656.457764 225.653778,659.504211 
	C225.220825,659.047546 224.787857,658.590820 224.354904,658.134155 
	C227.276306,655.412354 230.197708,652.690552 233.421783,649.833740 
	C233.724472,649.698792 234.070755,650.038940 234.250549,650.201904 
z"/>


<path fill="#E8E8E8" opacity="1.000000" stroke="none" 
	d="
M404.666565,253.007904 
	C401.013275,252.193237 397.089508,251.144150 393.062500,249.764801 
	C396.771515,250.547546 400.583832,251.660507 404.666565,253.007904 
z"/>

<path fill="#0A3358" opacity="1.000000" stroke="none" 
	d="
M652.865356,266.999573 
	C652.311462,267.051727 652.050842,267.074036 651.399048,267.065796 
	C653.063171,265.021423 655.118469,263.007538 657.613953,261.021332 
	C658.054138,261.049011 658.291199,261.290283 658.291199,261.290283 
	C656.580383,263.183441 654.869568,265.076599 652.865356,266.999573 
z"/>

<path fill="#45ADF5" opacity="1.000000" stroke="none" 
	d="
M582.812744,333.723083 
	C582.260925,333.697876 582.112976,333.468445 582.025513,332.969910 
	C583.881409,331.224152 585.766602,329.689606 588.012817,328.249054 
	C586.625000,330.087585 584.876038,331.832123 582.812744,333.723083 
z"/>
<path fill="#45ADF5" opacity="1.000000" stroke="none" 
	d="
M574.516785,337.902344 
	C573.453430,338.922668 572.036987,339.962799 570.231201,340.642212 
	C569.787292,340.050995 569.732849,339.820587 569.678406,339.590179 
	C570.059265,339.175110 570.440186,338.760040 571.070312,338.210205 
	C572.267517,338.024323 573.215637,337.973206 574.516785,337.902344 
z"/>
<path fill="#E8E8E8" opacity="1.000000" stroke="none" 
	d="
M373.635498,245.985596 
	C372.356750,246.142456 370.755402,246.133698 369.054535,245.809952 
	C370.407654,245.603302 371.860291,245.711639 373.635498,245.985596 
z"/>

<path fill="#E8E8E8" opacity="1.000000" stroke="none" 
	d="
M381.648132,247.028870 
	C380.672668,247.162918 379.397614,247.127869 378.038818,246.792633 
	C379.086243,246.614899 380.217377,246.737335 381.648132,247.028870 
z"/>
<path fill="#D9D9D9" opacity="1.000000" stroke="none" 
	d="
M585.728149,488.507721 
	C584.811462,488.902374 583.566772,489.155457 582.141235,489.140381 
	C583.106995,488.703491 584.253540,488.534821 585.728149,488.507721 
z"/>
<path fill="#E8E8E8" opacity="1.000000" stroke="none" 
	d="
M411.735718,255.962494 
	C410.652924,255.803619 409.360748,255.401230 408.014587,254.704010 
	C409.149200,254.845779 410.337738,255.282379 411.735718,255.962494 
z"/>

<path fill="#E7F0F5" opacity="1.000000" stroke="none" 
	d="
M639.563599,437.302643 
	C639.983582,438.162354 640.302612,439.351227 640.387939,440.741241 
	C639.923706,439.838837 639.693115,438.735352 639.563599,437.302643 
z"/>
<path fill="#E8E8E8" opacity="1.000000" stroke="none" 
	d="
M386.680542,248.034668 
	C385.988373,248.158524 385.032898,248.105377 384.016479,247.767670 
	C384.776093,247.607941 385.596680,247.732803 386.680542,248.034668 
z"/>
<path fill="#E7F0F5" opacity="1.000000" stroke="none" 
	d="
M639.962891,448.308838 
	C640.171021,448.970428 640.218262,449.900513 640.006775,450.931671 
	C639.766052,450.214264 639.784058,449.395782 639.962891,448.308838 
z"/>

<path fill="#D9D9D9" opacity="1.000000" stroke="none" 
	d="
M595.756958,487.585571 
	C595.158081,487.991852 594.260864,488.285400 593.200134,488.348419 
	C593.843933,487.902893 594.651245,487.687866 595.756958,487.585571 
z"/>
<path fill="#E7F0F5" opacity="1.000000" stroke="none" 
	d="
M638.373779,432.255463 
	C638.791321,432.542542 639.158936,433.102692 639.317749,433.809998 
	C638.847290,433.480927 638.585510,433.004730 638.373779,432.255463 
z"/>
<path fill="#D9D9D9" opacity="1.000000" stroke="none" 
	d="
M605.725220,485.079834 
	C605.474060,485.606842 604.926636,486.085632 604.209351,486.357025 
	C604.502625,485.776947 604.965820,485.404266 605.725220,485.079834 
z"/>
<path fill="#E8E8E8" opacity="1.000000" stroke="none" 
	d="
M218.746826,244.192078 
	C219.177658,244.080948 219.355103,244.151901 219.785431,244.357880 
	C219.611145,245.001175 219.183975,245.509460 218.490616,246.052719 
	C218.314117,245.516510 218.403778,244.945343 218.746826,244.192078 
z"/>
<path fill="#E8E8E8" opacity="1.000000" stroke="none" 
	d="
M390.760712,248.923004 
	C390.326874,249.086655 389.683899,249.065308 388.996460,248.791016 
	C389.485199,248.604736 390.018402,248.671371 390.760712,248.923004 
z"/>
<path fill="#257BB5" opacity="1.000000" stroke="none" 
	d="
M567.772583,341.156616 
	C567.611267,341.753448 567.154419,342.402649 566.370667,343.041565 
	C566.521606,342.423859 566.999390,341.816437 567.772583,341.156616 
z"/>
<path fill="#257BB5" opacity="1.000000" stroke="none" 
	d="
M569.395630,339.666992 
	C569.732849,339.820587 569.787292,340.050995 569.873047,340.635193 
	C569.503723,341.049500 569.103027,341.110077 568.401062,341.123657 
	C568.437500,340.632385 568.775208,340.188110 569.395630,339.666992 
z"/>
<path fill="#45ADF5" opacity="1.000000" stroke="none" 
	d="
M588.513306,328.296265 
	C588.391479,328.008850 588.566223,327.656250 589.050049,327.254303 
	C589.176086,327.546997 588.992981,327.889069 588.513306,328.296265 
z"/>
<path fill="#0A3358" opacity="1.000000" stroke="none" 
	d="
M220.979706,661.987976 
	C220.979706,661.987976 220.762939,662.417786 220.762939,662.417786 
	C220.762939,662.417786 220.789124,662.138550 220.894119,662.069702 
	C220.999115,662.000793 220.979706,661.987976 220.979706,661.987976 
z"/>
<path fill="#0A3358" opacity="1.000000" stroke="none" 
	d="
M221.977539,660.984863 
	C221.870987,661.303772 221.681961,661.562439 221.195084,661.874390 
	C220.979706,661.987976 220.999115,662.000793 221.005341,662.010559 
	C221.143982,661.719727 221.339539,661.468140 221.798676,661.133057 
	C221.999130,661.000549 221.977539,660.984863 221.977539,660.984863 
z"/>
<path fill="#0A3358" opacity="1.000000" stroke="none" 
	d="
M222.006622,661.011536 
	C222.086853,660.977722 222.159592,660.932922 222.104919,660.936523 
	C221.977539,660.984863 221.999130,661.000549 222.006622,661.011536 
z"/>
<path fill="#066BD0" opacity="1.000000" stroke="none" 
	d="
M512.003113,656.133789 
	C512.356995,656.055420 512.597107,656.197937 512.918091,656.558716 
	C512.846497,656.803955 512.673218,656.865967 512.243164,656.828125 
	C511.986389,656.728271 511.910156,656.319641 512.003113,656.133789 
z"/>
<path fill="#45ADF5" opacity="1.000000" stroke="none" 
	d="
M589.567017,327.338074 
	C589.473999,327.135864 589.602539,326.872284 589.878906,326.746155 
	C590.026794,326.883575 589.788513,327.276703 589.567017,327.338074 
z"/>
<path fill="#0779DD" opacity="1.000000" stroke="none" 
	d="
M258.468079,628.657898 
	C257.984650,628.891174 257.625275,628.652039 257.103760,628.129883 
	C257.491791,627.959717 258.041931,628.072632 258.468079,628.657898 
z"/>
<path fill="#45ADF5" opacity="1.000000" stroke="none" 
	d="
M51.266872,586.601685 
	C51.121834,586.594788 51.049465,586.411926 51.057846,586.050903 
	C51.246449,586.044617 51.313431,586.228943 51.266872,586.601685 
z"/>
<path fill="#0A3358" opacity="1.000000" stroke="none" 
	d="
M659.234741,260.226257 
	C659.142578,260.551239 658.959595,260.812683 658.488525,261.150421 
	C658.291199,261.290283 658.054138,261.049011 657.935303,260.926208 
	C657.972595,260.516602 658.179138,260.272552 658.742981,260.057129 
	C659.049683,260.042969 659.234741,260.226257 659.234741,260.226257 
z"/>
<path fill="#68BEF6" opacity="1.000000" stroke="none" 
	d="
M46.214996,572.622559 
	C46.063831,572.605774 46.002686,572.414246 46.039879,572.050415 
	C46.244198,572.055115 46.299797,572.245056 46.214996,572.622559 
z"/>
<path fill="#68BEF6" opacity="1.000000" stroke="none" 
	d="
M830.515564,576.439453 
	C830.706360,576.713074 830.570129,577.136841 830.166382,577.767639 
	C829.995483,577.512939 830.091980,577.051270 830.515564,576.439453 
z"/>
<path fill="#0A3358" opacity="1.000000" stroke="none" 
	d="
M660.151184,259.136566 
	C660.096985,259.480896 659.928711,259.755219 659.440552,260.092896 
	C659.234741,260.226257 659.049683,260.042969 658.958252,259.948059 
	C659.006470,259.551819 659.211609,259.304840 659.758911,259.070374 
	C660.035583,259.028473 660.151184,259.136566 660.151184,259.136566 
z"/>
<path fill="#0A3358" opacity="1.000000" stroke="none" 
	d="
M659.980957,258.971222 
	C660.107117,258.931946 660.287903,258.949921 660.309937,259.052246 
	C660.151184,259.136566 660.035583,259.028473 659.980957,258.971222 
z"/>
<path fill="#0A3358" opacity="1.000000" stroke="none" 
	d="
M664.512329,255.536499 
	C664.455811,255.568375 664.568848,255.504608 664.512329,255.536499 
z"/>
<path fill="#0577E7" opacity="1.000000" stroke="none" 
	d="
M66.631042,621.751709 
	C66.418350,621.839172 66.208534,621.631958 66.096542,621.078491 
	C66.272476,621.061340 66.418991,621.302917 66.631042,621.751709 
z"/>


<path fill="#257BB5" opacity="1.000000" stroke="none" 
	d="
M475.026672,423.035706 
	C468.884949,428.759430 462.762848,434.504333 456.597534,440.202484 
	C442.630890,453.110687 428.642975,465.995850 414.280243,478.585052 
	C418.426514,472.928864 423.055298,467.657837 427.453796,462.201172 
	C430.786682,458.066376 433.826050,453.694946 436.996033,449.428833 
	C436.878113,449.205597 436.935028,449.043610 437.606934,448.844788 
	C438.371765,448.473480 438.696472,448.200287 439.021179,447.927124 
	C439.021179,447.927124 439.017914,448.017242 439.212189,447.835510 
	C439.609192,447.304810 439.811951,446.955872 440.014709,446.606934 
	C441.121704,445.486572 442.228699,444.366211 443.789612,443.309052 
	C444.488586,443.208252 444.733704,443.044281 444.978821,442.880310 
	C444.978821,442.880280 444.963043,442.961884 445.302856,442.986938 
	C446.700378,442.622162 447.925507,442.455536 448.789276,441.807373 
	C455.899109,436.472229 462.909332,431.004089 470.031342,425.685516 
	C471.523773,424.570984 473.352753,423.907196 475.026672,423.035706 
z"/>
<path fill="#0A3358" opacity="1.000000" stroke="none" 
	d="
M475.014954,423.020569 
	C473.352753,423.907196 471.523773,424.570984 470.031342,425.685516 
	C462.909332,431.004089 455.899109,436.472229 448.789276,441.807373 
	C447.925507,442.455536 446.700378,442.622162 445.264038,442.972229 
	C448.324341,439.532684 451.781036,436.150543 455.192932,432.723816 
	C456.426392,431.485077 457.552673,430.139587 458.751801,428.515503 
	C466.599335,427.103668 470.350525,420.495758 475.576874,415.866364 
	C477.610443,414.065094 479.948425,412.612518 482.061737,410.895264 
	C487.049927,406.842072 491.793945,402.455566 497.012756,398.730804 
	C500.399231,396.313751 504.448029,394.824677 508.591583,392.972778 
	C503.614777,397.886871 498.246429,402.747986 492.300659,407.831665 
	C491.489319,408.387939 491.255371,408.721649 491.021423,409.055359 
	C491.021423,409.055359 491.003174,408.999756 490.747803,409.033417 
	C490.321747,409.375061 490.151123,409.683014 489.980469,409.990997 
	C489.980469,409.990997 489.997131,409.995300 489.692139,410.024078 
	C489.146027,410.377777 488.904877,410.702698 488.663757,411.027618 
	C488.663757,411.027618 488.625000,411.081177 488.221985,411.131653 
	C486.224426,412.801727 484.629913,414.421295 483.035370,416.040833 
	C483.035370,416.040833 483.000000,416.000000 482.656433,415.969482 
	C479.885681,418.301575 477.458466,420.664185 475.031250,423.026794 
	C475.031250,423.026794 475.003265,423.005463 475.014954,423.020569 
z"/>
<path fill="#E8E8E8" opacity="1.000000" stroke="none" 
	d="
M311.513947,549.973022 
	C311.634888,550.363037 311.288666,550.733582 310.756897,551.298706 
	C281.764618,551.428101 252.957901,551.373474 224.151306,551.274475 
	C222.198380,551.267761 220.246582,550.926453 218.288055,550.355530 
	C249.203506,549.964783 280.125153,549.959229 311.513947,549.973022 
z"/>
<path fill="#0A3358" opacity="1.000000" stroke="none" 
	d="
M436.665894,449.586609 
	C433.826050,453.694946 430.786682,458.066376 427.453796,462.201172 
	C423.055298,467.657837 418.426514,472.928864 413.944092,478.640472 
	C413.991455,479.001251 413.999359,479.000000 413.719727,479.019684 
	C413.289154,479.356873 413.138184,479.674377 412.987183,479.991882 
	C412.987213,479.991882 413.000000,479.998779 412.609985,479.956635 
	C411.962799,479.947510 411.705658,479.980560 411.448486,480.013641 
	C411.583496,478.568298 411.191772,476.720673 411.938690,475.742645 
	C416.935669,469.199371 422.175232,462.841400 427.596710,456.230743 
	C430.683472,453.940216 433.509613,451.842285 436.665894,449.586609 
z"/>
<path fill="#0A3358" opacity="1.000000" stroke="none" 
	d="
M438.690491,447.983643 
	C438.696472,448.200287 438.371765,448.473480 437.748383,448.880737 
	C437.753082,448.689911 438.056458,448.365021 438.690491,447.983643 
z"/>
<path fill="#0A3358" opacity="1.000000" stroke="none" 
	d="
M439.749695,446.778503 
	C439.811951,446.955872 439.609192,447.304810 439.167114,447.837280 
	C439.113403,447.663879 439.299042,447.306976 439.749695,446.778503 
z"/>
<path fill="#0A3358" opacity="1.000000" stroke="none" 
	d="
M444.683105,442.804321 
	C444.733704,443.044281 444.488586,443.208252 444.088318,443.254333 
	C444.084564,443.000427 444.235992,442.864380 444.683105,442.804321 
z"/>






<path fill="#45ADF5" opacity="1.000000" stroke="none" 
	d="
M511.947083,623.922974 
	C522.028870,623.403870 532.057434,623.313843 542.540344,623.710449 
	C543.681335,628.883362 539.890198,630.318665 536.879639,631.378174 
	C529.798523,633.870239 524.414124,638.525757 518.964722,643.349915 
	C517.327576,644.799194 514.676636,645.103333 512.490173,645.932129 
	C512.291443,638.738770 512.092651,631.545349 511.947083,623.922974 
z"/>
<path fill="#32A7F9" opacity="1.000000" stroke="none" 
	d="
M512.399048,646.286316 
	C514.676636,645.103333 517.327576,644.799194 518.964722,643.349915 
	C524.414124,638.525757 529.798523,633.870239 536.879639,631.378174 
	C539.890198,630.318665 543.681335,628.883362 542.995422,623.824463 
	C548.694519,623.384216 554.392761,623.316711 560.547485,623.361938 
	C559.841309,625.281677 558.784485,627.169678 557.481506,628.869080 
	C556.501770,630.146973 555.395325,631.537170 554.021301,632.270020 
	C543.550415,637.854919 533.072144,643.437500 522.425842,648.674561 
	C519.588928,650.070068 516.161560,650.265198 512.588745,651.013794 
	C512.217529,649.557556 512.262695,648.098999 512.399048,646.286316 
z"/>
<path fill="#0A3358" opacity="1.000000" stroke="none" 
	d="
M456.633972,452.859558 
	C454.000092,459.644867 449.473236,465.187378 443.472046,469.748810 
	C436.543213,475.015320 430.004395,480.791901 423.195648,486.220825 
	C420.148499,488.650452 416.856171,490.772583 413.307068,492.997406 
	C422.058838,484.582855 431.188934,476.216278 440.294556,467.823151 
	C445.649139,462.887543 450.964752,457.909607 456.633972,452.859558 
z"/>
<path fill="#68BEF6" opacity="1.000000" stroke="none" 
	d="
M530.173828,374.071228 
	C535.868103,369.133606 541.562439,364.196014 547.886963,359.090759 
	C548.980103,358.854736 549.443054,358.786407 549.906006,358.718079 
	C547.195007,361.290466 544.586609,363.982910 541.749695,366.407959 
	C537.139282,370.349030 532.379272,374.115051 527.285522,377.750427 
	C526.896362,377.345642 526.904053,377.145325 526.911682,376.944977 
	C526.911682,376.944977 526.981079,376.990814 527.222839,376.912201 
	C527.639099,376.553650 527.813660,376.273682 527.988159,375.993744 
	C527.988159,375.993744 528.000000,376.000000 528.255798,375.945374 
	C528.687744,375.602905 528.863953,375.315063 529.040161,375.027252 
	C529.040161,375.027252 529.000854,374.998535 529.281616,374.968719 
	C529.766235,374.649658 529.970032,374.360443 530.173828,374.071228 
z"/>
<path fill="#0A3358" opacity="1.000000" stroke="none" 
	d="
M391.379486,500.237946 
	C392.342621,493.954926 397.047974,490.698059 402.625183,488.358459 
	C402.278931,489.589478 401.687561,490.479919 401.096222,491.370361 
	C397.970245,494.291168 394.844269,497.212006 391.379486,500.237946 
z"/>
<path fill="#0A3358" opacity="1.000000" stroke="none" 
	d="
M408.384430,496.785645 
	C406.326355,502.887329 401.634705,506.632294 395.296143,508.990234 
	C399.302795,504.925568 403.680725,500.898163 408.384430,496.785645 
z"/>
<path fill="#0A3358" opacity="1.000000" stroke="none" 
	d="
M526.568359,376.974548 
	C526.904053,377.145325 526.896362,377.345642 526.944092,377.842682 
	C523.897705,380.732269 520.796021,383.325134 517.345459,385.924438 
	C520.072754,382.955322 523.148865,379.979706 526.568359,376.974548 
z"/>
<path fill="#257BB5" opacity="1.000000" stroke="none" 
	d="
M475.372009,423.015076 
	C477.458466,420.664185 479.885681,418.301575 482.674225,415.989410 
	C480.594604,418.361023 478.153687,420.682190 475.372009,423.015076 
z"/>
<path fill="#0A3358" opacity="1.000000" stroke="none" 
	d="
M384.615234,517.988037 
	C385.048981,522.212524 381.689758,522.941040 378.316101,523.999390 
	C380.056274,521.987976 382.169678,520.014587 384.615234,517.988037 
z"/>
<path fill="#0A3358" opacity="1.000000" stroke="none" 
	d="
M511.420471,391.074585 
	C512.791809,389.350372 514.501404,387.630524 516.571655,385.952271 
	C515.207764,387.688873 513.483276,389.383911 511.420471,391.074585 
z"/>
<path fill="#68BEF6" opacity="1.000000" stroke="none" 
	d="
M356.574951,541.734375 
	C354.803162,543.699646 352.671204,545.739014 350.204163,547.836182 
	C351.984314,545.865540 354.099579,543.837036 356.574951,541.734375 
z"/>
<path fill="#257BB5" opacity="1.000000" stroke="none" 
	d="
M483.374817,416.024963 
	C484.629913,414.421295 486.224426,412.801727 488.189087,411.128418 
	C486.944244,412.719513 485.329254,414.364319 483.374817,416.024963 
z"/>
<path fill="#0A3358" opacity="1.000000" stroke="none" 
	d="
M412.640076,492.988647 
	C411.782928,494.242554 410.600647,495.548279 409.059631,496.782776 
	C409.905579,495.487885 411.110260,494.264160 412.640076,492.988647 
z"/>
<path fill="#257BB5" opacity="1.000000" stroke="none" 
	d="
M401.432037,491.271118 
	C401.687561,490.479919 402.278931,489.589478 402.995148,488.399658 
	C403.948151,487.467834 404.776306,486.835388 405.919556,486.192596 
	C404.745728,487.845459 403.256805,489.508667 401.432037,491.271118 
z"/>
<path fill="#257BB5" opacity="1.000000" stroke="none" 
	d="
M406.522339,486.226196 
	C407.543182,484.750763 408.903931,483.263794 410.610809,481.851990 
	C409.592041,483.356354 408.227112,484.785492 406.522339,486.226196 
z"/>
<path fill="#0A3358" opacity="1.000000" stroke="none" 
	d="
M377.658386,523.965271 
	C377.271820,524.666748 376.574829,525.393921 375.532684,526.122803 
	C375.907684,525.413391 376.627838,524.702209 377.658386,523.965271 
z"/>
<path fill="#0A3358" opacity="1.000000" stroke="none" 
	d="
M394.653442,508.955322 
	C394.283508,509.659882 393.605591,510.397949 392.585022,511.139709 
	C392.943451,510.425232 393.644470,509.707031 394.653442,508.955322 
z"/>
<path fill="#68BEF6" opacity="1.000000" stroke="none" 
	d="
M359.843933,539.918762 
	C359.125641,540.414001 358.407349,540.909180 357.361816,541.476685 
	C357.779938,540.694275 358.525299,539.839600 359.582825,539.196716 
	C359.877960,539.578613 359.860962,539.748657 359.843933,539.918762 
z"/>
<path fill="#0A3358" opacity="1.000000" stroke="none" 
	d="
M360.182892,539.917114 
	C359.860962,539.748657 359.877960,539.578613 359.931030,539.153931 
	C360.444580,538.589294 360.922028,538.279175 361.685791,537.963623 
	C361.488708,538.610596 361.005280,539.263000 360.182892,539.917114 
z"/>
<path fill="#0A3358" opacity="1.000000" stroke="none" 
	d="
M368.943665,531.438843 
	C368.758270,531.958923 368.296112,532.536560 367.540894,533.118774 
	C367.720886,532.580994 368.193878,532.038757 368.943665,531.438843 
z"/>
<path fill="#68BEF6" opacity="1.000000" stroke="none" 
	d="
M551.163330,358.051483 
	C551.257996,357.621521 551.684753,357.200226 552.420105,356.748444 
	C552.317627,357.165344 551.906494,357.612762 551.163330,358.051483 
z"/>
<path fill="#68BEF6" opacity="1.000000" stroke="none" 
	d="
M554.045288,355.679047 
	C554.029358,355.264801 554.332703,354.790161 554.836609,354.430939 
	C554.812927,354.903778 554.588745,355.261200 554.045288,355.679047 
z"/>
<path fill="#257BB5" opacity="1.000000" stroke="none" 
	d="
M549.981445,358.475861 
	C549.443054,358.786407 548.980103,358.854736 548.166565,358.917725 
	C548.256836,358.490265 548.697632,358.068054 549.440979,357.740234 
	C549.847961,357.967590 549.952454,358.100586 549.981445,358.475861 
z"/>
<path fill="#0A3358" opacity="1.000000" stroke="none" 
	d="
M389.832550,513.204529 
	C390.058350,513.531128 389.890961,513.791992 389.345184,514.013245 
	C389.266693,513.786682 389.424194,513.508423 389.832550,513.204529 
z"/>
<path fill="#257BB5" opacity="1.000000" stroke="none" 
	d="
M413.265137,479.965515 
	C413.138184,479.674377 413.289154,479.356873 413.719543,479.016968 
	C413.847046,479.309448 413.695068,479.624298 413.265137,479.965515 
z"/>
<path fill="#257BB5" opacity="1.000000" stroke="none" 
	d="
M411.490540,480.288208 
	C411.705658,479.980560 411.962799,479.947510 412.607300,479.949371 
	C412.825195,480.302002 412.655731,480.619720 412.200745,480.951508 
	C411.787720,480.831329 411.660156,480.697052 411.490540,480.288208 
z"/>
<path fill="#257BB5" opacity="1.000000" stroke="none" 
	d="
M411.220398,481.932800 
	C411.061340,481.585205 411.189545,481.222046 411.634033,480.898102 
	C411.802795,481.263947 411.655212,481.590576 411.220398,481.932800 
z"/>
<path fill="#0A3358" opacity="1.000000" stroke="none" 
	d="
M391.872070,511.293457 
	C392.094177,511.598877 391.945923,511.843903 391.441833,512.053223 
	C391.187775,511.746765 391.326324,511.485291 391.872070,511.293457 
z"/>
<path fill="#0A3358" opacity="1.000000" stroke="none" 
	d="
M390.852478,512.243713 
	C391.077118,512.554871 390.923065,512.809082 390.407440,513.034302 
	C390.144440,512.720703 390.287079,512.447876 390.852478,512.243713 
z"/>
<path fill="#0A3358" opacity="1.000000" stroke="none" 
	d="
M470.898254,439.357788 
	C471.104675,439.630249 470.977112,439.852234 470.531738,440.048981 
	C470.286163,439.773712 470.402924,439.534882 470.898254,439.357788 
z"/>
<path fill="#0A3358" opacity="1.000000" stroke="none" 
	d="
M471.851471,438.418762 
	C472.062805,438.688446 471.947510,438.897705 471.522522,439.073486 
	C471.270966,438.803589 471.374969,438.576385 471.851471,438.418762 
z"/>
<path fill="#257BB5" opacity="1.000000" stroke="none" 
	d="
M488.977051,410.986633 
	C488.904877,410.702698 489.146027,410.377777 489.692322,410.015411 
	C489.761841,410.300537 489.526123,410.623077 488.977051,410.986633 
z"/>
<path fill="#257BB5" opacity="1.000000" stroke="none" 
	d="
M490.258820,409.970673 
	C490.151123,409.683014 490.321747,409.375061 490.771912,409.049988 
	C490.880005,409.338715 490.708588,409.644531 490.258820,409.970673 
z"/>
<path fill="#257BB5" opacity="1.000000" stroke="none" 
	d="
M491.335236,409.020142 
	C491.255371,408.721649 491.489319,408.387939 492.044220,408.014313 
	C492.126465,408.311218 491.887756,408.648041 491.335236,409.020142 
z"/>
<path fill="#0A3358" opacity="1.000000" stroke="none" 
	d="
M509.304199,392.981415 
	C509.178925,392.684998 509.331146,392.381348 509.754150,392.063599 
	C509.877197,392.357727 509.729431,392.665955 509.304199,392.981415 
z"/>
<path fill="#0A3358" opacity="1.000000" stroke="none" 
	d="
M510.340240,392.034851 
	C510.207428,391.724670 510.366669,391.420868 510.797607,391.092804 
	C510.923615,391.392761 510.777954,391.717010 510.340240,392.034851 
z"/>

<path fill="#0A3358" opacity="1.000000" stroke="none" 
	d="
M362.734497,537.046692 
	C362.837524,537.323120 362.667480,537.621216 362.227539,537.946167 
	C362.125580,537.671448 362.293488,537.369934 362.734497,537.046692 
z"/>
<path fill="#0A3358" opacity="1.000000" stroke="none" 
	d="
M363.764771,536.096313 
	C363.868378,536.361511 363.706451,536.652161 363.284851,536.975952 
	C363.183197,536.713379 363.341217,536.417603 363.764771,536.096313 
z"/>
<path fill="#0A3358" opacity="1.000000" stroke="none" 
	d="
M364.795288,535.150085 
	C364.891296,535.403687 364.729553,535.679504 364.320190,535.993774 
	C364.227539,535.745605 364.382568,535.458984 364.795288,535.150085 
z"/>
<path fill="#0A3358" opacity="1.000000" stroke="none" 
	d="
M365.821716,534.203369 
	C366.067474,534.533813 365.912140,534.798035 365.367676,535.014709 
	C365.089081,534.679321 365.236450,534.402649 365.821716,534.203369 
z"/>
<path fill="#0A3358" opacity="1.000000" stroke="none" 
	d="
M366.846832,533.279663 
	C367.081146,533.603027 366.931091,533.849426 366.408386,534.040771 
	C366.149353,533.718628 366.291565,533.457581 366.846832,533.279663 
z"/>
<path fill="#0A3358" opacity="1.000000" stroke="none" 
	d="
M370.701233,530.003967 
	C370.775421,530.276306 370.554047,530.585022 370.038086,530.939331 
	C369.964203,530.670044 370.184906,530.355225 370.701233,530.003967 
z"/>
<path fill="#0A3358" opacity="1.000000" stroke="none" 
	d="
M371.769714,529.046143 
	C371.862885,529.302551 371.684692,529.603516 371.237335,529.947937 
	C371.144867,529.691162 371.321564,529.390930 371.769714,529.046143 
z"/>

<path fill="#0A3358" opacity="1.000000" stroke="none" 
	d="
M373.817444,527.176270 
	C374.053345,527.514160 373.882416,527.783264 373.317322,528.007019 
	C373.235779,527.772217 373.398254,527.487549 373.817444,527.176270 
z"/>
<path fill="#0A3358" opacity="1.000000" stroke="none" 
	d="
M374.845825,526.233276 
	C375.066193,526.548462 374.906006,526.804077 374.381897,527.026978 
	C374.119751,526.705994 374.268829,526.432495 374.845825,526.233276 
z"/>
<path fill="#0A3358" opacity="1.000000" stroke="none" 
	d="
M385.705261,516.993774 
	C385.814423,517.270752 385.642426,517.573914 385.199951,517.917603 
	C385.094330,517.645447 385.259216,517.332703 385.705261,516.993774 
z"/>
<path fill="#0A3358" opacity="1.000000" stroke="none" 
	d="
M386.742065,516.045654 
	C386.844788,516.314331 386.674866,516.614014 386.236450,516.948853 
	C386.135132,516.681519 386.302246,516.379028 386.742065,516.045654 
z"/>
<path fill="#0A3358" opacity="1.000000" stroke="none" 
	d="
M387.778992,515.084412 
	C387.877106,515.342102 387.707611,515.636108 387.276489,515.972290 
	C387.180389,515.716553 387.345886,515.418640 387.778992,515.084412 
z"/>
<path fill="#C9E7F8" opacity="1.000000" stroke="none" 
	d="
M537.510376,519.923706 
	C537.367981,519.611023 537.444824,519.136658 537.599915,519.109436 
	C538.023376,519.035339 538.479797,519.149902 540.075745,519.293213 
	C538.613953,519.718933 538.189636,519.842529 537.510376,519.923706 
z"/>
<path fill="#C9E7F8" opacity="1.000000" stroke="none" 
	d="
M532.489258,519.077759 
	C532.254150,519.430908 531.765015,519.742188 531.275879,520.053467 
	C531.173340,519.836914 531.070740,519.620361 530.968140,519.403809 
	C531.390564,519.281189 531.812988,519.158569 532.489258,519.077759 
z"/>
<path fill="#C9E7F8" opacity="1.000000" stroke="none" 
	d="
M545.302124,519.877014 
	C545.221741,519.590393 545.307007,519.219971 545.515015,519.128418 
	C545.669922,519.060242 545.983765,519.353027 546.226807,519.485046 
	C545.991333,519.627686 545.755859,519.770325 545.302124,519.877014 
z"/>
<path fill="#32A7F9" opacity="1.000000" stroke="none" 
	d="
M314.965149,579.485291 
	C314.219482,580.012207 313.630829,580.244934 312.828033,580.723022 
	C310.947937,580.629272 309.282043,580.289978 307.311066,579.643677 
	C307.454681,578.797485 307.903351,578.258301 308.351990,577.719055 
	C308.805939,577.414368 309.259918,577.109680 310.208740,576.798096 
	C310.970886,576.361084 311.238159,575.931030 311.505432,575.500916 
	C311.505432,575.500916 311.657776,575.562195 311.922241,575.600586 
	C312.343231,575.272217 312.499817,574.905396 312.656372,574.538635 
	C312.656372,574.538635 312.736023,574.707214 312.965729,574.676575 
	C313.371216,574.286133 313.547028,573.926331 313.722839,573.566528 
	C313.722809,573.566528 313.696075,573.516541 313.676880,573.494507 
	C317.168457,571.404297 320.645508,569.275818 324.202728,567.291016 
	C326.316742,566.111450 328.556946,565.158020 331.139709,564.112000 
	C326.066742,569.144409 320.594482,574.167725 314.965149,579.485291 
z"/>
<path fill="#0E90F7" opacity="1.000000" stroke="none" 
	d="
M623.101440,617.916626 
	C623.283508,617.563965 623.795105,617.210815 624.639038,616.868652 
	C624.457886,617.225159 623.944397,617.570618 623.101440,617.916626 
z"/>
<path fill="#0A3358" opacity="1.000000" stroke="none" 
	d="
M527.740540,376.045105 
	C527.813660,376.273682 527.639099,376.553650 527.209229,376.872894 
	C527.133545,376.640289 527.313232,376.368408 527.740540,376.045105 
z"/>
<path fill="#0A3358" opacity="1.000000" stroke="none" 
	d="
M528.786804,375.083923 
	C528.863953,375.315063 528.687744,375.602905 528.253052,375.939423 
	C528.174194,375.705627 528.353821,375.423126 528.786804,375.083923 
z"/>
<path fill="#0A3358" opacity="1.000000" stroke="none" 
	d="
M529.903564,374.120972 
	C529.970032,374.360443 529.766235,374.649658 529.293579,374.989777 
	C529.227600,374.750671 529.430420,374.460693 529.903564,374.120972 
z"/>
<path fill="#1A96F1" opacity="1.000000" stroke="none" 
	d="
M611.177979,621.378296 
	C613.414001,620.379272 615.826233,619.681213 618.618530,619.039246 
	C616.957581,621.456665 615.281006,624.896362 611.177979,621.378296 
z"/>
<path fill="#1A96F1" opacity="1.000000" stroke="none" 
	d="
M605.116943,622.293701 
	C605.169678,622.082397 605.330322,622.011475 605.750488,621.986694 
	C605.748291,622.166565 605.486633,622.300415 605.116943,622.293701 
z"/>








<path fill="#68BEF6" opacity="1.000000" stroke="none" 
	d="
M311.230652,575.608643 
	C311.238159,575.931030 310.970886,576.361084 310.470520,576.715332 
	C310.476929,576.331726 310.716400,576.024048 311.230652,575.608643 
z"/>
<path fill="#68BEF6" opacity="1.000000" stroke="none" 
	d="
M313.431152,573.633240 
	C313.547028,573.926331 313.371216,574.286133 312.873413,574.663635 
	C312.747406,574.354187 312.943451,574.027100 313.431152,573.633240 
z"/>
<path fill="#68BEF6" opacity="1.000000" stroke="none" 
	d="
M312.368591,574.607666 
	C312.499817,574.905396 312.343231,575.272217 311.862488,575.656860 
	C311.719177,575.342102 311.899994,575.009399 312.368591,574.607666 
z"/>
<path fill="#32A7F9" opacity="1.000000" stroke="none" 
	d="
M305.916687,580.979614 
	C305.980347,580.726685 306.247101,580.366211 306.732239,579.922607 
	C306.673676,580.183716 306.396729,580.527893 305.916687,580.979614 
z"/>
</svg>